<?xml version="1.0" encoding="utf-8"?>
<!-- Generator: Adobe Illustrator 27.5.0, SVG Export Plug-In . SVG Version: 6.00 Build 0)  -->
<svg version="1.1" xmlns="http://www.w3.org/2000/svg" xmlns:xlink="http://www.w3.org/1999/xlink" x="0px" y="0px"
	 viewBox="0 0 500 500" style="enable-background:new 0 0 500 500;" xml:space="preserve">
<g id="background">
	<rect transform="matrix(-1 -1.224647e-16 1.224647e-16 -1 500 500)" style="fill:#FFFFFF;" width="500" height="500"/>
</g>
<g id="objects">
	<g>
		<g>
			<path style="fill:#303030;" d="M231.701,105.407c-1.198,0.144-2.673,0.584-3.376,1.675c-0.545,0.845-1.089,1.68-1.734,2.453
				c-0.462,0.553-0.958,1.08-1.463,1.596c-2.604,2.462-5.69,4.34-8.859,5.991c-1.4,0.657-2.834,1.228-4.294,1.747
				c-1.47,0.523-2.943,1.018-4.453,1.4c-2.891,0.583-5.807,1.051-8.745,1.316c-1.624,0.146-3.247,0.3-4.869,0.449
				c-1.638,0.15-3.286,0.185-4.93,0.216c-0.151,0.003-0.302,0.005-0.453,0.007c-6.352,0.054-12.72,0.118-19.057-0.381
				c-3.235-0.254-6.458-0.66-9.649-1.252c-3.237-0.601-6.488-1.115-9.767-1.425c-1.619-0.154-3.243-0.253-4.867-0.351
				c-1.559-0.094-3.117-0.205-4.679-0.261c-3.564-0.128-7.125-0.133-10.69-0.052c-1.571,0.035-3.15,0.047-4.715,0.191
				c-2.01,0.184-3.969,0.542-5.937,0.989c-1.55,0.351-3.085,0.757-4.619,1.176c-1.545,0.423-3.077,0.898-4.527,1.584
				c-1.799,0.851-3.588,1.732-5.3,2.748c-1.363,0.809-2.692,1.692-3.974,2.625c-2.863,2.084-5.557,4.435-7.93,7.069
				c-1.078,1.197-1.928,2.574-2.775,3.938c-0.886,1.427-1.623,2.912-2.269,4.459c-1.315,3.147-2.301,6.51-2.69,9.905
				c-0.186,1.623-0.29,3.255-0.338,4.887c-0.053,1.896,0.119,3.737,0.599,5.578c0.383,1.468,0.912,2.927,1.475,4.332
				c0.533,1.33,1.164,2.576,1.959,3.768c0.964,1.443,1.963,2.879,3.156,4.144c1.311,1.391,2.805,2.544,4.419,3.568
				c1.268,0.804,2.59,1.515,3.945,2.16c0.746,0.355,1.505,0.685,2.264,1.01c1.062,0.454,2.12,0.923,3.218,1.282
				c0.774,0.253,1.571,0.44,2.364,0.613c1.096,0.238,2.2,0.458,3.31,0.612c1.234,0.171,2.496,0.18,3.74,0.176
				c0.668-0.001,1.334-0.006,2.001-0.011c0.215-0.001,0.434,0,0.655,0.001c0.808,0.005,1.645,0.01,2.429-0.144
				c1.656-0.325,3.348-0.731,4.906-1.396c0.814-0.347,1.615-0.729,2.422-1.095c0.729-0.33,1.466-0.663,2.154-1.072
				c0.412-0.247,0.763-0.571,1.13-0.876c0.453-0.289,0.719-0.697,0.8-1.225c0.076-0.856-0.641-1.5-1.305-1.882
				c-0.648-0.345-1.336-0.546-2.068-0.603c-0.968-0.086-2.144,0.04-2.955,0.638c-0.38,0.281-0.756,0.552-1.162,0.787
				c-0.914,0.416-1.856,0.778-2.784,1.156c-0.951,0.388-1.932,0.672-2.927,0.916c-0.352,0.062-0.704,0.104-1.062,0.125
				c-0.871-0.007-1.742-0.034-2.611-0.066c-0.994-0.037-1.991-0.095-2.976-0.244c-1.216-0.255-2.424-0.571-3.588-1.005
				c-2.565-1.119-5.062-2.379-7.367-3.971c-1.303-1.048-2.423-2.323-3.412-3.668c-0.397-0.57-0.785-1.148-1.132-1.746
				c-0.476-0.822-0.866-1.684-1.212-2.568c-0.36-0.918-0.667-1.856-0.975-2.791c-0.287-0.876-0.561-1.754-0.757-2.653
				c-0.156-1.208-0.146-2.417-0.101-3.637c0.05-1.357,0.138-2.719,0.291-4.069c0.297-2.579,0.898-5.091,1.739-7.542
				c0.742-1.944,1.627-3.801,2.737-5.569c0.577-0.919,1.154-1.856,1.81-2.722c0.533-0.704,1.127-1.354,1.744-1.984
				c1.808-1.725,3.704-3.319,5.739-4.774c1.926-1.377,3.935-2.6,6.035-3.682c1.398-0.661,2.806-1.271,4.298-1.7
				c1.289-0.372,2.591-0.688,3.898-0.989c1.225-0.254,2.451-0.48,3.693-0.635c1.067-0.133,2.142-0.197,3.218-0.227
				c2.869,0,5.738,0.039,8.604,0.187c3.084,0.16,6.158,0.385,9.236,0.631c3.376,0.27,6.726,0.712,10.059,1.303
				c1.843,0.363,3.684,0.747,5.539,1.034c1.662,0.257,3.331,0.468,5.002,0.654c3.273,0.363,6.566,0.537,9.858,0.595
				c3.286,0.058,6.578,0.026,9.865,0.012c3.853-0.016,7.7-0.027,11.539-0.404c1.583-0.156,3.17-0.282,4.754-0.442
				c1.618-0.162,3.219-0.437,4.821-0.716c2.011-0.351,4.025-0.732,6.002-1.246c1.54-0.399,3.046-0.943,4.537-1.492
				c3.384-1.247,6.612-2.89,9.659-4.817c2.854-1.804,5.391-4.131,7.55-6.718c0.829-0.991,1.542-2.047,2.242-3.132
				c0.401-0.62,0.458-1.272,0.17-1.953c-0.48-1.195-1.896-1.889-3.033-2.236c-0.758-0.219-1.524-0.328-2.301-0.328
				C232.303,105.358,232.003,105.374,231.701,105.407L231.701,105.407L231.701,105.407z"/>
			<path style="fill:#303030;" d="M145.833,109.66c-0.383,0.19-0.766,0.38-1.149,0.569c-0.639,0.409-1.016,0.985-1.13,1.729
				c0.073,1.573,0.11,3.149,0.223,4.719c0.109,1.538,0.192,3.077,0.237,4.619c0.092,3.214,0.092,6.436,0.089,9.653
				c-0.004,3.366-0.001,6.733-0.073,10.1c-0.07,3.242-0.258,6.482-0.395,9.722c-0.138,3.295-0.3,6.59-0.443,9.886
				c-0.071,1.644-0.128,3.288-0.208,4.931c-0.079,1.602-0.19,3.202-0.239,4.805c-0.21,6.705-0.259,13.408-0.261,20.117
				c0,6.735,0.309,13.483,1.145,20.171c0.449,3.59,0.979,7.197,1.719,10.74c0.334,1.592,0.672,3.192,1.131,4.754
				c0.226,0.765,0.445,1.536,0.723,2.284c0.334,0.892,0.734,1.752,1.147,2.61c0.945,1.965,3.742,2.531,5.693,2.296
				c1.643-0.197,3.992-1.248,3.239-3.312c-0.811-2.221-1.179-4.558-1.599-6.879c-1.062-6.394-1.608-12.874-2.023-19.339
				c-0.22-3.425-0.372-6.854-0.387-10.287c-0.015-3.296-0.012-6.594,0.011-9.89c0.024-3.417,0.109-6.831,0.19-10.247
				c0.077-3.227,0.284-6.447,0.414-9.673c0.266-6.575,0.629-13.145,0.842-19.721c0.213-6.617,0.092-13.252-0.092-19.868
				c-0.052-1.861-0.16-3.723-0.381-5.571c-0.11-0.919-0.268-1.831-0.391-2.749c-0.133-0.995-0.199-1.989-0.246-2.99
				c0.016-0.752-0.254-1.386-0.813-1.899c-0.986-1.028-2.583-1.492-3.954-1.613c-0.243-0.023-0.485-0.035-0.726-0.035
				C147.352,109.292,146.585,109.415,145.833,109.66L145.833,109.66L145.833,109.66z"/>
		</g>
		<path style="fill:#303030;" d="M328.506,204.289c-0.717-0.747-1.876-1.084-2.871-1.171c-0.749-0.072-1.481,0.009-2.196,0.242
			c-0.278,0.138-0.556,0.275-0.834,0.413c-0.464,0.297-0.737,0.715-0.82,1.254c-0.399,1.554-0.892,3.088-1.322,4.633
			c-0.407,1.459-0.886,2.897-1.37,4.332c-0.758,2.002-1.643,3.978-2.734,5.818c-1.13,1.904-2.483,3.627-4.019,5.21
			c-1.103,1.039-2.304,1.965-3.589,2.766c-0.198-0.21-0.387-0.427-0.568-0.653c-0.519-0.822-0.971-1.68-1.358-2.575
			c-0.416-0.964-0.644-2.014-0.845-3.047c-0.089-0.599-0.158-1.198-0.208-1.803c-0.065-0.775-0.037-1.561-0.031-2.339
			c0.012-1.585,0.047-3.168,0.137-4.753c0.18-3.181,0.555-6.363,1.118-9.498c0.581-3.238,1.265-6.455,1.994-9.663
			c0.707-3.108,1.402-6.256,1.14-9.466c-0.092-1.12-0.231-2.226-0.464-3.326c-0.164-0.774-0.404-1.535-0.816-2.214
			c-0.358-0.592-0.785-1.201-1.263-1.713c-0.515-0.552-1.177-0.981-1.826-1.358c-1.098-0.638-2.587-1.03-3.845-1.077
			c-0.188-0.007-0.379-0.011-0.57-0.011c-1.123,0-2.278,0.138-3.302,0.605c-0.613,0.282-1.255,0.563-1.821,0.938
			c-0.868,0.574-1.618,1.296-2.324,2.059c-0.538,0.579-1.057,1.177-1.541,1.804c-1.004,1.299-1.935,2.646-2.809,4.037
			c-1.801,2.867-3.573,5.77-5.1,8.794c-0.41,0.813-0.811,1.629-1.202,2.45c0.039-0.219,0.074-0.438,0.116-0.656
			c0.205-1.062,0.427-2.12,0.622-3.183c0.211-1.149,0.284-2.299,0.344-3.464c0.017-0.806-0.273-1.485-0.871-2.035
			c-1.057-1.103-2.768-1.599-4.235-1.728c-0.262-0.025-0.522-0.038-0.78-0.038c-0.836,0-1.656,0.131-2.461,0.394
			c-0.926,0.336-2.064,0.993-2.366,2.025c-0.103,0.099-0.199,0.207-0.288,0.324c-1.222,3.262-2.284,6.576-3.103,9.963
			c-0.397,1.646-0.799,3.279-1.294,4.9c-0.476,1.554-0.938,3.116-1.433,4.666c-0.996,3.122-1.978,6.255-3.066,9.348
			c-0.766,1.997-1.541,4-2.567,5.881c-0.528,0.967-1.051,1.928-1.671,2.839c-0.106-0.344-0.199-0.693-0.277-1.048
			c-0.392-2.864-0.337-5.806-0.149-8.68c0.097-1.466,0.184-2.931,0.383-4.388c0.208-1.51,0.419-3.015,0.662-4.518
			c0.165-1.021,0.237-2.053,0.319-3.083c0.017-0.803-0.272-1.478-0.868-2.026c-1.052-1.098-2.755-1.593-4.218-1.721
			c-1.102-0.107-2.177,0.013-3.228,0.355c-0.834,0.301-1.77,0.834-2.199,1.657c-0.432,0.186-0.797,0.464-1.087,0.848
			c-0.718,1.471-1.456,2.934-2.183,4.402c-0.706,1.424-1.387,2.858-2.083,4.286c-0.715,1.465-1.517,2.879-2.363,4.272
			c-0.383,0.632-0.818,1.233-1.243,1.836c-0.463,0.656-0.921,1.321-1.426,1.947c-0.539,0.668-1.094,1.32-1.675,1.951
			c-0.208,0.189-0.418,0.374-0.635,0.551c-0.175-0.305-0.334-0.619-0.458-0.948c-0.174-0.457-0.307-0.915-0.413-1.385
			c-0.376-2.957-0.162-5.992,0.32-8.924c0.535-3.255,1.152-6.481,2.165-9.626c0.144-0.448,0.298-0.894,0.454-1.339
			c1.012-2.741,2.156-5.406,3.605-7.951c0.799-1.402,1.641-2.786,2.562-4.112c0.787-1.135,1.708-2.175,2.662-3.173
			c0.763-0.695,1.556-1.337,2.446-1.858c0.041-0.017,0.082-0.033,0.124-0.05c0.027,0.008,0.055,0.016,0.082,0.024
			c0.063,0.034,0.125,0.069,0.187,0.104c0.253,0.24,0.479,0.498,0.697,0.771c0.665,1.027,1.197,2.125,1.491,3.315
			c0.132,1.287,0.088,2.593-0.027,3.88c-0.148,1.654-0.387,3.278-0.68,4.911c-0.011,0.538,0.182,0.991,0.582,1.36
			c0.706,0.736,1.849,1.068,2.83,1.154c1.372,0.12,3.501-0.231,3.796-1.883c0.311-1.748,0.604-3.501,0.689-5.279
			c0.042-0.872,0.053-1.737,0.026-2.609c-0.012-0.402-0.074-0.799-0.135-1.195c-0.089-0.582-0.189-1.205-0.398-1.762
			c-0.646-1.718-1.542-3.33-2.737-4.73c-0.459-0.537-1.094-0.933-1.665-1.332c-0.639-0.447-1.439-0.713-2.15-0.992
			c-1.371-0.54-2.865-0.747-4.341-0.747c-0.378,0-0.755,0.013-1.129,0.039c-0.572,0.038-1.132,0.237-1.69,0.362
			c-0.272,0.061-0.536,0.151-0.799,0.239c-0.264,0.089-0.521,0.202-0.778,0.309c-0.675,0.28-1.366,0.62-2.006,0.985
			c-0.742,0.423-1.485,0.845-2.154,1.38c-0.682,0.546-1.351,1.107-1.995,1.696c-0.845,0.773-1.667,1.583-2.408,2.458
			c-0.553,0.655-1.051,1.347-1.548,2.046c-0.912,1.283-1.795,2.595-2.536,3.985c-0.782,1.465-1.449,2.966-2.073,4.506
			c-1.313,3.24-2.455,6.565-3.151,9.997c-0.329,1.618-0.63,3.248-0.871,4.88c-0.233,1.58-0.344,3.167-0.402,4.764
			c-0.069,1.892,0.149,3.774,0.542,5.624c0.167,0.785,0.458,1.514,0.83,2.222c0.344,0.655,0.85,1.316,1.294,1.876
			c0.211,0.267,0.465,0.486,0.725,0.705c0.429,0.364,1.012,0.813,1.541,1.128c0.77,0.46,1.615,0.762,2.446,1.096
			c0.187,0.076,0.391,0.122,0.587,0.166c0.713,0.164,1.435,0.288,2.157,0.402c0.837,0.132,1.711,0.038,2.548,0.027
			c0.188-0.002,0.376-0.025,0.562-0.05c0.703-0.093,1.417-0.241,2.08-0.49c2.245-0.846,3.93-2.561,5.285-4.487
			c0.789-1.121,1.512-2.293,2.19-3.491c0.01,0.319,0.021,0.639,0.037,0.959c0.094,1.883,0.267,3.835,0.875,5.626
			c0.366,1.079,1.094,2.007,1.743,2.92c0.445,0.626,0.976,1.263,1.592,1.729c0.51,0.387,1.011,0.788,1.556,1.125
			c0.186,0.117,0.388,0.2,0.589,0.289c0.63,0.278,1.212,0.538,1.865,0.711c2.399,0.633,5.058,0.462,7.158-0.959
			c0.579-0.392,1.058-0.95,1.521-1.469c0.212-0.237,0.4-0.496,0.584-0.755c0.231-0.324,0.454-0.654,0.662-0.993
			c0.856-1.392,1.567-2.861,2.243-4.347c0.754-1.659,1.313-3.399,1.907-5.119c0.053-0.153,0.103-0.306,0.155-0.459
			c0.003,0.018,0.005,0.037,0.008,0.055c0.074,0.489,0.155,0.976,0.256,1.461c0.192,0.927,1.229,1.733,2.007,2.116
			c1.478,0.728,3.08,1.072,4.73,0.873c0.495-0.11,0.989-0.22,1.484-0.33c0.829-0.254,1.504-0.724,2.023-1.411
			c0.103-0.247,0.218-0.493,0.3-0.747c0.169-0.227,0.292-0.494,0.353-0.807c0.376-1.941,0.803-3.862,1.316-5.771
			c0.457-1.698,1.012-3.367,1.588-5.027c1.143-3.073,2.36-6.12,3.622-9.147c1.286-3.085,2.859-6.089,4.534-8.98
			c1.062-1.834,2.144-3.665,3.32-5.429c0.898-1.349,1.846-2.652,2.925-3.854c0.068,0.993,0.059,1.994,0.005,2.982
			c-0.087,1.568-0.284,3.144-0.613,4.681c-0.342,1.605-0.763,3.193-1.146,4.79c-0.391,1.626-0.759,3.257-1.104,4.894
			c-0.661,3.14-1.215,6.29-1.559,9.481c-0.342,3.171-0.46,6.344-0.467,9.531c-0.004,1.96,0.329,3.894,0.732,5.807
			c0.34,1.62,0.939,3.098,1.764,4.529c0.547,0.949,1.177,1.87,1.899,2.692c0.746,0.85,1.767,1.563,2.692,2.166
			c0.686,0.445,1.513,0.711,2.255,1.009c0.36,0.145,0.729,0.252,1.104,0.349c2.382,0.618,4.91,0.708,7.238-0.189
			c1.02-0.393,2.002-0.945,2.851-1.635c0.578-0.471,1.118-0.989,1.66-1.5c1.376-1.298,2.635-2.699,3.758-4.223
			c0.954-1.295,1.779-2.67,2.549-4.08c0.779-1.429,1.38-2.918,1.959-4.438c0.434-1.139,0.888-2.269,1.245-3.435
			c0.289-0.94,0.581-1.882,0.851-2.827c0.277-0.971,0.531-1.948,0.795-2.923c0.28-1.031,0.581-2.057,0.79-3.105
			C329.108,205.121,328.911,204.661,328.506,204.289z M257.73,227.094c-0.049,0.012-0.099,0.022-0.149,0.032
			c0.05-0.011,0.1-0.022,0.151-0.033C257.731,227.093,257.731,227.093,257.73,227.094z"/>
		<path style="fill:#303030;" d="M228.807,285.707c-0.742-1.329-1.559-2.615-2.278-3.955c-0.705-1.319-1.344-2.668-1.937-4.042
			c-1.279-2.957-2.335-6.007-3.194-9.112c-1.017-3.676-1.764-7.409-2.427-11.163c-0.5-2.97-0.857-5.939-1.042-8.948
			c-0.092-1.495-0.055-2.998-0.05-4.496c0.005-1.577,0.012-3.152,0.033-4.729c0.02-1.583,0.022-3.165,0.069-4.746
			c0.047-1.561,0.154-3.118,0.251-4.674c0.196-3.12,0.494-6.234,0.831-9.342c0.174-1.603,0.402-3.199,0.577-4.803
			c0.171-1.563,0.321-3.128,0.494-4.691c0.339-3.054,0.733-6.107,1.239-9.137c0.499-2.993,0.929-6.029,1.079-9.064
			c0.079-1.599-0.076-3.18-0.311-4.759c-0.158-1.05-0.274-2.134-0.811-3.068c-0.268-0.466-0.59-0.913-0.943-1.321
			c-0.408-0.474-0.979-0.788-1.477-1.155c-0.36-0.265-0.781-0.479-1.208-0.663c0.054-0.016,0.107-0.033,0.16-0.049
			c-0.012-0.008-0.025-0.016-0.037-0.024c-0.727-0.48-1.573-0.779-2.399-1.057c-0.339-0.114-0.685-0.206-1.035-0.282
			c-0.568-0.125-1.16-0.254-1.745-0.323c-0.268-0.031-0.537-0.04-0.806-0.04c-0.35,0-0.701,0.015-1.055,0.02
			c-0.714,0.01-1.408,0.206-2.102,0.366c-0.335,0.077-0.667,0.161-0.988,0.288c-0.976,0.382-1.899,0.902-2.812,1.414
			c-0.664,0.373-1.318,0.731-1.917,1.202c-0.786,0.622-1.48,1.383-2.167,2.108c-0.558,0.588-1.064,1.224-1.562,1.865
			c-1.009,1.296-1.998,2.609-2.865,4.007c-0.865,1.393-1.599,2.872-2.302,4.351c-0.712,1.495-1.403,2.997-2.063,4.516
			c-0.506,1.164-0.991,2.333-1.449,3.511c-0.262-3.123-0.467-6.242-0.55-9.377c-0.087-3.344-0.066-6.695-0.058-10.041
			c0.015-6.72,0.246-13.43,0.656-20.137c0.202-3.301,0.462-6.597,0.738-9.894c0.296-3.533,0.309-7.081,0.412-10.624
			c0.067-2.3-2.859-3.292-4.686-3.452c-0.241-0.023-0.48-0.035-0.717-0.035c-0.767,0-1.519,0.12-2.258,0.361
			c-0.945,0.342-2.203,1.084-2.24,2.26c-0.11,3.542-0.18,7.085-0.538,10.613c-0.336,3.325-0.71,6.646-1.006,9.974
			c-0.295,3.294-0.558,6.586-0.68,9.891c-0.124,3.384-0.237,6.767-0.294,10.153c-0.056,3.376-0.086,6.761-0.016,10.137
			c0.071,3.393,0.306,6.762,0.614,10.141c0.323,3.544,0.831,7.05,1.444,10.555c0.282,1.605,0.591,3.204,0.891,4.807
			c0.159,0.845,0.326,1.689,0.502,2.531c0.074,0.356,0.15,0.712,0.239,1.063c0.212,0.834,0.455,1.396,1.051,2.109
			c0.036,0.045,0.073,0.088,0.11,0.133c0.661,0.61,1.428,1.036,2.3,1.275c1.009,0.292,2.036,0.382,3.082,0.269
			c0.899-0.084,1.728-0.37,2.486-0.856c0.619-0.396,0.984-0.954,1.094-1.673c0-0.004,0-0.009,0-0.013
			c0.094-0.17,0.153-0.358,0.158-0.565c0.019-0.804,0.033-1.607,0.112-2.408c0.069-0.727,0.208-1.445,0.354-2.161
			c0.282-1.389,0.607-2.773,0.924-4.155c0.622-2.702,1.273-5.39,2.181-8.01c1.108-2.953,2.398-5.839,3.748-8.688
			c0.723-1.526,1.482-3.029,2.343-4.482c0.781-1.317,1.714-2.552,2.665-3.751c0.262-0.171,0.495-0.382,0.693-0.643
			c0.11-0.111,0.22-0.221,0.331-0.331c0.593-0.569,1.186-1.137,1.816-1.664c0.508-0.426,1.061-0.777,1.638-1.094
			c0.273-0.113,0.555-0.205,0.841-0.285c0.03-0.004,0.059-0.008,0.088-0.012c0.034,0.01,0.067,0.019,0.101,0.029
			c0.182,0.353,0.313,0.734,0.409,1.121c0.175,1.393,0.249,2.803,0.226,4.207c-0.025,1.518-0.228,3.031-0.403,4.538
			c-0.175,1.519-0.371,3.028-0.623,4.537c-0.254,1.526-0.504,3.053-0.711,4.587c-0.413,3.067-0.764,6.137-1.081,9.214
			c-0.32,3.134-0.741,6.255-1.046,9.391c-0.305,3.144-0.527,6.296-0.675,9.451c-0.145,3.139-0.119,6.292-0.133,9.433
			c-0.006,1.499-0.031,3.001,0.007,4.5c0.042,1.619,0.197,3.239,0.372,4.848c0.366,3.354,1.004,6.697,1.739,9.989
			c0.047,0.209,0.095,0.418,0.143,0.627c0.115,0.585,0.236,1.168,0.366,1.747c0.149,0.658,0.314,1.313,0.452,1.973
			c0.14,0.668,0.267,1.336,0.457,1.991c0.406,1.402,0.775,2.81,1.249,4.192c0.52,1.517,1.084,3.02,1.687,4.504
			c0.363,0.898,0.703,1.809,1.094,2.696c0.401,0.906,0.862,1.775,1.368,2.626c0.496,0.832,1.069,1.616,1.623,2.412
			c0.817,1.174,1.643,2.34,2.474,3.503c0.615,0.568,1.33,0.964,2.141,1.187c1.304,0.395,2.853,0.435,4.147-0.034
			c0.336-0.103,0.639-0.251,0.916-0.436c0.213-0.099,0.422-0.208,0.624-0.338C228.667,287.606,229.315,286.617,228.807,285.707z"/>
		<g>
			<path style="fill:#303030;" d="M220.994,301.913c-1.02-1.063-2.671-1.543-4.088-1.667c-0.252-0.024-0.503-0.036-0.752-0.036
				c-0.807,0-1.599,0.127-2.376,0.38c-0.396,0.196-0.792,0.392-1.189,0.589c-0.66,0.423-1.049,1.019-1.169,1.788
				c0.053,3.422-0.029,6.841-0.07,10.262c-0.019,1.583-0.037,3.17-0.102,4.751c-0.066,1.634-0.22,3.264-0.279,4.898
				c-0.035,0.973-0.066,1.946-0.101,2.919c-0.413,1.581-0.842,3.161-1.287,4.733c-0.887,3.134-1.813,6.256-2.761,9.373
				c-0.243,0.795-0.509,1.587-0.78,2.373c-0.568,1.527-1.161,3.045-2.016,4.439c-0.47,0.765-1.001,1.494-1.528,2.219
				c-0.485,0.667-0.975,1.335-1.522,1.954c-0.94,0.8-2.009,1.492-3.079,2.111c-0.34,0.137-0.684,0.253-1.036,0.354
				c-0.15,0.023-0.299,0.043-0.449,0.06c-0.177-0.094-0.35-0.194-0.52-0.299c-0.41-0.363-0.782-0.755-1.131-1.178
				c-0.95-1.58-1.447-3.337-1.797-5.142c-0.442-3.007-0.384-6.049-0.286-9.082c0.109-3.373,0.399-6.731,0.65-10.096
				c0.244-3.278,0.466-6.559,0.799-9.83c0.342-3.376,0.717-6.755,0.944-10.141c0.227-3.367,0.44-6.733,0.707-10.096
				c0.135-1.701,0.242-3.402,0.287-5.107c0.043-1.654-0.009-3.316-0.038-4.969c-0.06-3.305-0.46-6.604-0.902-9.876
				c-0.258-1.91-0.572-3.819-1.006-5.698c-0.352-1.523-0.749-3.052-1.355-4.497c-0.576-1.371-1.363-2.646-2.088-3.94
				c-0.772-1.38-1.54-2.76-2.45-4.057c-1.089-1.552-2.193-3.061-3.539-4.4c-1.427-1.421-3.047-2.688-4.791-3.695
				c-1.244-0.717-2.528-1.361-3.852-1.919c-1.093-0.46-2.192-0.885-3.299-1.31c-0.713-0.275-1.422-0.567-2.152-0.794
				c-1.939-0.6-3.978-0.943-5.999-1.123c-0.536-0.047-1.078-0.063-1.62-0.063c-0.653,0-1.306,0.022-1.95,0.038
				c-0.76,0.019-1.52,0.055-2.28,0.092c-1.557,0.079-3.11,0.199-4.636,0.531c-1.945,0.424-3.844,0.945-5.708,1.647
				c-3.3,1.243-6.414,2.98-9.261,5.055c-1.329,0.968-2.535,2.113-3.709,3.26c-1.339,1.308-2.552,2.688-3.627,4.221
				c-0.929,1.324-1.752,2.696-2.487,4.136c-0.747,1.46-1.458,2.964-2.045,4.496c-0.3,0.78-0.605,1.557-0.754,2.383
				c-0.07,0.383-0.128,0.772-0.173,1.159c-0.097,0.841-0.174,1.683-0.249,2.527c-0.145,1.616-0.269,3.207-0.066,4.823
				c0.434,3.456,1.187,6.961,2.788,10.078c0.652,1.27,1.37,2.513,2.195,3.68c0.964,1.363,1.94,2.726,3.119,3.913
				c0.491,0.495,1.037,0.947,1.589,1.372c0.796,0.614,1.6,1.228,2.441,1.78c1.379,0.904,2.915,1.487,4.436,2.103
				c0.249,0.104,0.499,0.209,0.747,0.315c0.687,0.366,1.419,0.579,2.197,0.641c1.03,0.089,2.271-0.046,3.136-0.679
				c0.481-0.308,0.764-0.741,0.85-1.299c0.073-0.836-0.66-1.692-1.387-2c-1.004-0.424-2.02-0.827-3.016-1.27
				c-0.873-0.387-1.679-0.862-2.46-1.402c-0.784-0.599-1.543-1.23-2.231-1.941c-0.73-0.754-1.372-1.591-1.988-2.442
				c-1.126-1.659-2.103-3.448-2.845-5.312c-0.746-1.873-1.23-3.846-1.604-5.826c-0.114-0.761-0.23-1.526-0.267-2.295
				c-0.043-0.899,0.017-1.789,0.081-2.685c0.062-0.872,0.123-1.744,0.191-2.615c0.078-0.989,0.157-1.987,0.433-2.942
				c1.62-4.248,3.798-8.31,6.944-11.62c1.197-1.15,2.458-2.25,3.822-3.193c1.334-0.922,2.736-1.746,4.174-2.497
				c2.121-0.971,4.343-1.709,6.61-2.263c1.508-0.276,3.018-0.37,4.548-0.403c0.628-0.003,1.256,0,1.883,0.023
				c0.789,0.029,1.566,0.109,2.344,0.225c0.827,0.186,1.637,0.417,2.433,0.713c2.238,0.975,4.442,2.043,6.463,3.416
				c1.626,1.309,3.02,2.88,4.261,4.556c0.688,1.024,1.313,2.084,1.912,3.163c0.654,1.178,1.331,2.346,1.94,3.548
				c1.186,2.339,1.824,4.911,2.301,7.483c0.241,1.527,0.426,3.059,0.6,4.596c0.185,1.62,0.385,3.234,0.486,4.863
				c0.104,1.667,0.104,3.34,0.119,5.009c0.014,1.675-0.003,3.347-0.117,5.019c-0.233,3.408-0.507,6.813-0.732,10.222
				c-0.217,3.306-0.526,6.597-0.845,9.895c-0.325,3.362-0.629,6.723-0.884,10.091c-0.253,3.32-0.542,6.642-0.716,9.968
				c-0.084,1.628-0.12,3.259-0.14,4.889c-0.019,1.584-0.022,3.166,0.107,4.745c0.089,1.098,0.282,2.212,0.516,3.284
				c0.18,0.824,0.401,1.645,0.729,2.424c0.324,0.766,0.701,1.5,1.18,2.181c0.692,0.985,1.349,1.904,2.207,2.742
				c0.836,0.815,1.839,1.494,2.853,2.072c0.697,0.397,1.471,0.663,2.211,0.963c0.372,0.151,0.757,0.258,1.145,0.358
				c2.685,0.7,5.467,0.591,8.089-0.311c1.006-0.347,2.007-0.809,2.891-1.401c0.633-0.423,1.232-0.904,1.825-1.379
				c0.793-0.634,1.543-1.321,2.195-2.1c0.521-0.625,0.954-1.34,1.417-2.008c0.219-0.316,0.436-0.635,0.648-0.958
				c-0.021,0.841-0.044,1.683-0.074,2.524c-0.123,3.397-0.218,6.797-0.376,10.193c-0.158,3.373-0.341,6.748-0.645,10.111
				c-0.29,3.202-0.744,6.405-1.224,9.583c-0.602,3.991-1.456,7.967-2.783,11.785c-0.761,2.039-1.624,4.01-2.769,5.871
				c-0.588,0.957-1.202,1.888-1.902,2.768c-0.565,0.711-1.198,1.377-1.837,2.029c-0.747,0.676-1.565,1.19-2.438,1.708
				c-0.758,0.451-1.485,0.948-2.251,1.383c-0.941,0.389-1.923,0.661-2.881,1.012c-0.871,0.318-1.73,0.658-2.62,0.914
				c-0.81,0.133-1.628,0.197-2.449,0.234c-0.637-0.025-1.266-0.092-1.896-0.19c-1.272-0.268-2.527-0.609-3.748-1.054
				c-0.935-0.454-1.803-1.025-2.652-1.626c-0.86-0.67-1.642-1.396-2.315-2.258c-0.839-1.259-1.581-2.581-2.21-3.958
				c-0.661-1.444-1.089-2.984-1.401-4.538c-0.276-1.808-0.372-3.639-0.405-5.467c-0.016-0.963,0.026-1.903,0.239-2.845
				c0.196-0.857,0.472-1.701,0.761-2.534c0.197-0.502,0.42-0.98,0.695-1.45c0.325-0.556,0.71-1.084,1.074-1.614
				c0.624-0.903,1.364-1.674,2.133-2.439c0.593-0.568,1.21-1.095,1.86-1.596c0.703-0.543,1.47-0.979,2.227-1.439
				c0.455-0.292,0.725-0.702,0.805-1.233c0.076-0.862-0.645-1.51-1.314-1.894c-0.651-0.347-1.346-0.55-2.083-0.608
				c-0.381,0.004-0.763,0.008-1.144,0.012c-0.662,0.062-1.273,0.272-1.831,0.63c-0.935,0.501-1.83,1.021-2.667,1.679
				c-0.834,0.654-1.589,1.382-2.339,2.125c-0.695,0.682-1.406,1.344-2.004,2.114c-0.473,0.609-0.907,1.257-1.329,1.902
				c-0.989,1.514-1.557,3.273-2.069,4.998c-0.231,0.777-0.432,1.547-0.488,2.358c-0.053,0.777-0.052,1.555-0.041,2.332
				c0.024,1.595,0.092,3.181,0.324,4.761c0.252,1.711,0.617,3.419,1.223,5.04c0.542,1.45,1.286,2.805,2.087,4.127
				c0.948,1.566,2.047,2.969,3.503,4.085c1.411,1.083,2.909,2.268,4.557,2.987c1.813,0.792,3.655,1.411,5.584,1.846
				c1.092,0.246,2.196,0.47,3.306,0.613c1.136,0.146,2.262,0.112,3.409,0.099c0.757-0.01,1.517-0.035,2.269-0.119
				c1.125-0.126,2.238-0.382,3.327-0.681c0.713-0.195,1.406-0.46,2.108-0.69c0.757-0.246,1.525-0.449,2.288-0.674
				c1.847-0.543,3.489-1.571,5.187-2.454c0.8-0.388,1.598-0.782,2.327-1.293c0.636-0.447,1.211-0.979,1.783-1.502
				c1.325-1.212,2.609-2.453,3.698-3.883c1.892-2.486,3.383-5.233,4.529-8.138c1.253-3.177,2.309-6.473,2.941-9.835
				c0.592-3.144,0.961-6.337,1.358-9.51c0.413-3.299,0.599-6.622,0.785-9.94c0.191-3.4,0.29-6.807,0.412-10.21
				c0.117-3.299,0.19-6.597,0.274-9.897c0.087-3.382,0.272-6.762,0.402-10.144c0.127-3.28,0.411-6.55,0.522-9.832
				c0.053-1.588,0.082-3.173,0.185-4.759c0.107-1.629,0.158-3.253,0.172-4.885c0.041-4.239-0.113-8.476-0.185-12.715
				C221.853,303.099,221.572,302.445,220.994,301.913z"/>
			<path style="fill:#303030;" d="M358.732,347.47c-0.134-0.996-0.31-1.987-0.49-2.976c-0.279-1.541-0.731-3.064-1.244-4.543
				c-0.294-0.842-0.656-1.646-1.081-2.431c-0.778-1.442-2.723-1.891-4.235-1.71c-0.635,0.06-1.221,0.262-1.755,0.605
				c-0.563,0.412-1.026,1.146-0.655,1.86c1.183,2.269,1.922,4.767,2.399,7.276c0.078,0.475,0.15,0.951,0.212,1.428
				c0.082,0.618,0.073,1.244,0.073,1.866c-0.001,1.228-0.043,2.448-0.171,3.67c-0.256,2.454-0.823,4.882-1.587,7.23
				c-0.29,0.645-0.63,1.263-0.966,1.887c-0.356,0.661-0.705,1.329-1.097,1.971c-0.748,1.223-1.622,2.298-2.608,3.324
				c-0.759,0.715-1.558,1.37-2.413,1.972c-0.763,0.538-1.597,0.995-2.433,1.422c-0.884,0.418-1.78,0.778-2.72,1.051
				c-1.02,0.181-2.047,0.292-3.083,0.334c-1.888-0.024-3.757-0.161-5.62-0.461c-1.273-0.273-2.526-0.609-3.747-1.061
				c-1.512-0.678-2.951-1.471-4.318-2.409c-1.165-0.932-2.21-1.971-3.123-3.152c-1.655-2.508-2.916-5.216-3.995-8.02
				c-0.589-1.532-1.016-3.114-1.454-4.693c-0.427-1.543-0.775-3.109-1.112-4.674c-0.227-1.056-0.439-2.112-0.634-3.173
				c-0.487-3.132-0.87-6.281-1-9.449c-0.133-3.221-0.143-6.445-0.102-9.668c0.041-3.146,0.324-6.289,0.558-9.426
				c0.118-1.578,0.301-3.151,0.45-4.725c0.146-1.561,0.279-3.126,0.502-4.678c0.117-0.803,0.258-1.6,0.402-2.398
				c0.017-0.746-0.252-1.373-0.805-1.882c-0.978-1.02-2.559-1.479-3.918-1.598c-0.22-0.019-0.454-0.03-0.696-0.03
				c-1.853,0-4.192,0.614-4.559,2.636c-0.272,1.506-0.605,3-0.893,4.503c-0.309,1.61-0.52,3.238-0.741,4.862
				c-0.424,3.124-0.71,6.275-0.917,9.421c-0.103,1.567-0.117,3.14-0.129,4.71c-0.011,1.373-0.025,2.747-0.009,4.12
				c-0.186,0.485-0.374,0.969-0.553,1.456c-0.555,1.513-1.189,3.007-1.85,4.477c-0.676,1.5-1.394,2.984-2.147,4.446
				c-0.751,1.46-1.485,2.907-2.453,4.239c-0.492,0.68-0.985,1.358-1.495,2.025c-0.471,0.614-0.964,1.183-1.497,1.736
				c-0.367,0.347-0.743,0.677-1.134,0.987c-0.437-0.75-0.79-1.543-1.035-2.38c-0.302-1.033-0.53-2.084-0.731-3.14
				c-0.431-2.999-0.291-6.045-0.198-9.066c0.048-1.588,0.119-3.173,0.201-4.76c0.082-1.578,0.117-3.157,0.234-4.734
				c0.221-2.955,0.448-5.911,0.684-8.865c0.125-1.581,0.229-3.162,0.386-4.74c0.155-1.563,0.308-3.135,0.377-4.706
				c0.052-1.184,0.031-2.365,0.1-3.548c0.017-0.78-0.263-1.437-0.842-1.97c-1.023-1.068-2.68-1.549-4.103-1.674
				c-0.253-0.024-0.504-0.036-0.754-0.036c-0.81,0-1.605,0.127-2.385,0.381c-1.026,0.372-2.29,1.136-2.363,2.384
				c-0.091,1.52-0.172,3.036-0.336,4.548c-0.169,1.546-0.323,3.091-0.496,4.636c-0.179,1.592-0.275,3.195-0.414,4.79
				c-0.129,1.49-0.246,2.979-0.359,4.47c-0.078,1.014-0.167,2.028-0.246,3.042c-0.451,1.212-0.903,2.433-1.475,3.591
				c-0.35,0.708-0.719,1.422-1.157,2.08c-0.428,0.643-0.902,1.233-1.418,1.803c-0.762,0.705-1.582,1.344-2.474,1.875
				c-0.232,0.09-0.465,0.176-0.701,0.256c-0.06-0.018-0.12-0.036-0.18-0.055c-0.266-0.133-0.526-0.274-0.782-0.427
				c-0.149-0.134-0.29-0.275-0.423-0.427c-0.488-0.754-0.943-1.57-1.195-2.418c-0.078-1.067,0.009-2.17,0.126-3.222
				c0.072-0.64,0.206-1.275,0.325-1.909c0.095-0.508,0.196-1.016,0.335-1.515c0.369-0.867,0.812-1.699,1.248-2.536
				c0.427-0.661,0.488-1.355,0.181-2.08c-0.357-0.888-1.198-1.516-2.086-1.94c-0.033-0.537-0.074-1.074-0.133-1.612
				c-0.115-1.047-0.196-2.131-0.439-3.157c-0.182-0.768-0.409-1.515-0.675-2.257c-0.253-0.707-0.497-1.417-0.813-2.099
				c-0.29-0.63-0.633-1.238-0.995-1.83c-0.515-0.844-1.092-1.659-1.753-2.393c-0.739-0.824-1.684-1.474-2.623-2.047
				c-0.287-0.175-0.597-0.313-0.903-0.45c-0.677-0.304-1.482-0.668-2.233-0.86c-1.245-0.319-2.61-0.562-3.909-0.61
				c-0.213-0.008-0.427-0.011-0.641-0.011c-0.527,0-1.054,0.02-1.578,0.037c-0.868,0.03-1.729,0.298-2.563,0.526
				c-0.786,0.216-1.6,0.628-2.291,1.017c-0.654,0.37-1.234,0.826-1.799,1.32c-1.414,1.238-2.766,2.593-3.904,4.094
				c-0.925,1.222-1.706,2.568-2.402,3.931c-0.806,1.579-1.368,3.293-1.955,4.959c-0.514,1.46-1.016,2.923-1.435,4.414
				c-0.866,3.072-1.556,6.227-1.924,9.399c-0.184,1.59-0.355,3.185-0.473,4.782c-0.12,1.613-0.146,3.234-0.163,4.852
				c-0.016,1.603,0.058,3.212,0.222,4.806c0.123,1.182,0.304,2.366,0.572,3.525c0.172,0.748,0.337,1.521,0.61,2.241
				c0.299,0.79,0.677,1.518,1.129,2.232c0.618,0.975,1.286,1.929,1.999,2.836c0.227,0.288,0.506,0.561,0.784,0.8
				c0.88,0.759,1.808,1.514,2.888,1.964c0.839,0.349,1.656,0.734,2.538,0.953c1.574,0.388,3.028,0.574,4.652,0.462
				c1.845-0.129,3.58-0.84,5.144-1.795c0.945-0.577,1.757-1.363,2.446-2.229c0.979-1.227,1.912-2.506,2.659-3.888
				c0.738-1.365,1.371-2.781,1.964-4.214c0.706-1.706,1.367-3.436,1.943-5.189c0.38-1.157,0.758-2.318,1.11-3.484
				c0.844,0.453,1.774,0.777,2.684,1.068c1.185,0.378,2.491,0.563,3.74,0.558c0.125,0,0.249,0,0.372,0
				c0.78,0.001,1.501,0.003,2.264-0.167c0.882-0.195,1.636-0.337,2.441-0.697c0.487-0.218,0.975-0.484,1.458-0.726
				c0.385-0.192,0.749-0.418,1.098-0.668c-0.003,0.711-0.002,1.423,0.011,2.133c0.034,1.938,0.33,3.82,0.701,5.721
				c0.289,1.475,0.623,2.946,1.363,4.269c0.523,0.934,1.145,1.825,1.822,2.652c0.736,0.901,1.625,1.544,2.573,2.223
				c0.299,0.213,0.614,0.417,0.949,0.568c0.734,0.333,1.51,0.716,2.316,0.872c0.653,0.127,1.303,0.266,1.961,0.357
				c0.731,0.103,1.502,0.043,2.231-0.019c1.326-0.114,2.697-0.639,3.787-1.401c1.478-1.03,2.698-2.414,3.83-3.804
				c0.942-1.158,1.713-2.439,2.485-3.712c0.5-0.826,0.954-1.677,1.381-2.54c0.093,0.493,0.193,0.984,0.302,1.474
				c0.37,1.66,0.791,3.306,1.249,4.944c0.881,3.144,2.046,6.198,3.546,9.098c0.749,1.449,1.62,2.825,2.556,4.16
				c1.091,1.556,2.237,3.034,3.702,4.26c1.478,1.237,3.053,2.389,4.751,3.309c1.827,0.991,3.765,1.805,5.734,2.47
				c1.852,0.626,3.843,0.94,5.764,1.254c1.566,0.256,3.144,0.36,4.729,0.382c3.768,0.053,7.659-0.105,11.149-1.687
				c1.644-0.746,3.244-1.635,4.722-2.673c1.473-1.036,2.776-2.325,3.961-3.675c1.052-1.198,1.906-2.501,2.634-3.917
				c0.368-0.716,0.742-1.429,1.093-2.152c0.457-0.945,0.788-1.933,1.063-2.943c0.434-1.584,0.855-3.182,1.081-4.811
				c0.229-1.665,0.326-3.335,0.331-5.013C358.83,348.972,358.832,348.218,358.732,347.47z M253.081,339.083
				c-0.27,0.865-0.541,1.729-0.835,2.587c-0.63,1.674-1.346,3.313-2.145,4.913c-0.409,0.818-0.868,1.602-1.359,2.373
				c-0.43,0.677-0.962,1.276-1.521,1.848c-0.779,0.751-1.569,1.488-2.489,2.056c-0.016,0.007-0.031,0.013-0.047,0.019
				c-0.37-0.359-0.709-0.75-1.025-1.16c-0.545-0.806-1.061-1.631-1.408-2.544c-0.348-0.917-0.592-1.881-0.783-2.848
				c-0.431-3.155-0.399-6.355-0.253-9.531c0.144-3.149,0.501-6.321,1.073-9.421c0.668-3.625,1.685-7.141,2.902-10.612
				c0.26-0.704,0.532-1.402,0.838-2.088c0.377-0.844,0.834-1.65,1.296-2.449c0.918-1.585,2.015-3.016,3.275-4.336
				c0.542-0.514,1.102-1.007,1.724-1.417c0.01-0.004,0.02-0.007,0.03-0.011c0.031-0.003,0.062-0.006,0.092-0.009
				c0.228,0.014,0.455,0.033,0.682,0.058c0.308,0.082,0.613,0.173,0.916,0.272c0.125,0.066,0.249,0.135,0.37,0.208
				c0.44,0.398,0.828,0.84,1.189,1.312c0.517,0.795,0.97,1.605,1.363,2.474c0.476,1.05,0.91,2.119,1.158,3.245
				c0.141,0.859,0.267,1.724,0.338,2.589c0.033,0.401,0.055,0.801,0.073,1.202c-0.278,0.217-0.531,0.47-0.754,0.764
				c-0.853,1.637-1.698,3.285-2.115,5.1c-0.339,1.475-0.588,2.979-0.64,4.492c-0.012,0.373-0.025,0.746-0.023,1.119
				c0.002,0.559,0.075,1.08,0.168,1.621C254.564,333.657,253.918,336.394,253.081,339.083z"/>
		</g>
		<path style="fill:#303030;" d="M415.248,241.639c-0.055-0.818-0.174-1.655-0.491-2.414c-0.284-0.676-0.765-1.301-1.193-1.885
			c-0.242-0.331-0.499-0.649-0.775-0.95c-0.158-0.171-0.315-0.342-0.471-0.514c-0.55-0.597-1.226-1.046-1.878-1.52
			c-0.428-0.311-0.908-0.549-1.387-0.77c-0.68-0.313-1.392-0.628-2.118-0.836c-1.214-0.35-2.469-0.59-3.723-0.742
			c-1.203-0.146-2.435-0.134-3.642-0.082c-0.816,0.036-1.629,0.115-2.434,0.249c-2.043,0.34-4.074,0.789-6.06,1.378
			c-1.566,0.465-3.105,1.028-4.627,1.619c-2.768,1.074-5.489,2.313-8.174,3.589c-0.148-0.118-0.295-0.236-0.441-0.354
			c-1.298-1.052-2.525-2.181-3.753-3.312c-2.594-2.387-5.275-4.671-7.844-7.083c-1.21-1.135-2.378-2.314-3.593-3.441
			c-1.207-1.12-2.404-2.237-3.532-3.439c-1.113-1.186-2.219-2.346-3.458-3.403c-1.437-1.226-2.956-2.374-4.488-3.476
			c-1.283-0.922-2.641-1.729-4.053-2.435c-0.976-0.487-1.994-0.908-3.006-1.311c-0.814-0.324-1.626-0.633-2.469-0.876
			c-0.176-0.051-0.353-0.097-0.531-0.144c0.316-0.177,0.63-0.357,0.937-0.545c1.309-0.799,2.599-1.639,3.822-2.563
			c0.602-0.455,1.201-0.914,1.785-1.392c0.848-0.695,1.628-1.484,2.391-2.269c2.242-2.309,4.328-4.821,5.789-7.705
			c0.748-1.478,1.456-2.965,2.072-4.502c0.411-1.025,0.806-2.082,1.02-3.168c0.146-0.751,0.227-1.523,0.243-2.286
			c0.017-0.798-0.017-1.608-0.107-2.399c-0.117-1.055-0.253-2.165-0.636-3.164c-0.362-0.946-0.926-1.731-1.52-2.553
			c-0.221-0.305-0.471-0.571-0.75-0.823c-0.558-0.502-1.181-0.95-1.829-1.332c-0.3-0.177-0.615-0.332-0.927-0.49
			c-0.176-0.091-0.356-0.174-0.536-0.255c-0.474-0.213-0.965-0.403-1.449-0.598c-0.551-0.221-1.366-0.296-1.826-0.382
			c-0.403-0.075-0.809-0.107-1.214-0.107c-1.264,0-2.527,0.311-3.742,0.594c-1.785,0.414-3.414,1.332-4.965,2.281
			c-1.326,0.811-2.53,1.803-3.668,2.857c-0.743,0.688-1.478,1.391-2.138,2.16c-0.552,0.641-1.066,1.313-1.568,1.994
			c-0.409,0.554-0.811,1.113-1.208,1.676c0.127-1.683,0.26-3.366,0.376-5.049c0.228-3.305,0.469-6.605,0.835-9.897
			c0.351-3.16,0.834-6.303,1.23-9.458c0.809-6.456,1.631-12.913,2.723-19.328c0.548-3.219,1.074-6.442,1.595-9.667
			c0.015-0.686-0.232-1.264-0.741-1.732c-0.778-0.811-1.97-1.236-3.087-1.408c-0.627-0.312-1.291-0.502-1.994-0.557
			c-0.39,0.004-0.78,0.007-1.171,0.012c-0.677,0.063-1.301,0.278-1.873,0.645c-1.27,1.083-2.491,2.223-3.757,3.312
			c-1.224,1.055-2.437,2.124-3.662,3.177c-2.455,2.108-5.059,4.029-7.705,5.89c-2.741,1.927-5.507,3.826-8.343,5.61
			c-2.81,1.769-5.775,3.257-8.717,4.786c-1.421,0.739-2.835,1.492-4.264,2.214c-2.864,1.398-5.776,2.699-8.733,3.89
			c-3.151,1.268-6.368,2.343-9.639,3.257c-2.703,0.755-5.417,1.47-8.151,2.1c-2.265,0.483-4.546,0.893-6.837,1.223
			c-2.266,0.327-4.561,0.672-6.855,0.73c-2.249,0.007-4.498-0.082-6.743-0.185c-2.075-0.096-4.134-0.261-6.183-0.583
			c-0.328-0.094-0.668-0.158-1.009-0.194c-2.524-0.55-5.003-1.303-7.404-2.258c-2.295-0.978-4.572-2.052-6.63-3.466
			c-0.515-0.397-1.019-0.805-1.52-1.22c-0.633-0.523-1.288-1.021-1.904-1.564c-0.586-0.516-1.129-1.083-1.665-1.651
			c-0.533-0.566-1.071-1.126-1.55-1.739c-0.145-0.216-0.288-0.434-0.43-0.652c-0.283-0.551-0.701-0.966-1.254-1.249
			c-0.994-0.571-2.269-0.763-3.395-0.628c-0.697,0.066-1.34,0.287-1.927,0.664c-0.561,0.411-1.195,1.309-0.718,2.042
			c0.568,0.875,1.141,1.759,1.83,2.544c0.531,0.608,1.079,1.202,1.631,1.791c1.048,1.119,2.254,2.062,3.43,3.041
			c1.5,1.249,3.068,2.412,4.777,3.359c1.365,0.757,2.794,1.408,4.222,2.036c3.403,1.499,6.946,2.718,10.607,3.405
			c0.14,0.026,0.28,0.053,0.42,0.079c0.448,0.103,0.906,0.172,1.35,0.251c0.795,0.143,1.593,0.268,2.394,0.364
			c1.624,0.191,3.253,0.275,4.885,0.344c1.623,0.068,3.248,0.112,4.873,0.132c1.974,0.023,3.949,0.026,5.915-0.16
			c6.802-0.644,13.495-2.1,20.08-3.892c3.229-0.878,6.445-1.832,9.569-3.036c3.196-1.232,6.337-2.605,9.43-4.074
			c3.199-1.518,6.316-3.211,9.454-4.851c1.469-0.768,2.938-1.537,4.364-2.382c1.47-0.87,2.904-1.786,4.326-2.733
			c2.773-1.847,5.519-3.742,8.201-5.717c1.904-1.401,3.739-2.873,5.537-4.397c-0.182,0.876-0.367,1.752-0.555,2.629
			c-0.671,3.119-1.238,6.265-1.795,9.407c-0.572,3.222-1.067,6.452-1.576,9.684c-0.504,3.206-1.053,6.406-1.46,9.627
			c-0.408,3.214-0.671,6.437-0.917,9.668c-0.248,3.266-0.553,6.532-0.739,9.803c-0.373,6.589-0.28,13.192-0.226,19.788
			c0.027,3.305,0.143,6.602,0.294,9.904c0.151,3.291,0.303,6.59,0.612,9.87c0.148,1.574,0.324,3.145,0.501,4.715
			c0.114,1.001,0.243,1.99,0.423,2.984c0.15,0.824,0.406,1.611,0.624,2.418c0.339,0.659,0.839,1.156,1.502,1.496
			c0.82,0.437,1.695,0.692,2.623,0.765c0.927,0.088,1.832-0.011,2.717-0.299c0.832-0.301,2.046-0.999,2.044-2.063
			c-0.003-1.573-0.151-3.145-0.274-4.713c-0.125-1.602-0.238-3.204-0.341-4.809c-0.104-1.618-0.122-3.24-0.161-4.862
			c-0.04-1.671-0.087-3.342-0.126-5.013c-0.041-1.709-0.067-3.419-0.083-5.128c1.271-0.107,2.542-0.188,3.818-0.248
			c0.614,0.001,1.226,0.01,1.842,0.032c0.52,0.019,1.04,0.091,1.556,0.176c0.617,0.145,1.224,0.304,1.835,0.482
			c0.375,0.109,0.744,0.249,1.11,0.397c1.922,0.839,3.747,1.835,5.462,3.041c1.166,0.889,2.311,1.813,3.417,2.776
			c1.233,1.076,2.319,2.286,3.428,3.485c1.12,1.212,2.339,2.32,3.539,3.449c1.164,1.094,2.274,2.242,3.433,3.34
			c2.518,2.384,5.147,4.646,7.688,7.006c1.275,1.185,2.556,2.353,3.905,3.454c0.295,0.241,0.592,0.479,0.891,0.716
			c-1.688,0.831-3.372,1.669-5.054,2.51c-2.332,1.167-4.642,2.37-6.969,3.545c-1.668,0.816-3.34,1.623-5.01,2.436
			c-0.039,0.013-0.078,0.027-0.117,0.041c-0.303,0.11-0.618,0.249-0.917,0.421c-0.42,0.154-0.823,0.355-1.17,0.616
			c-0.781,0.384-1.561,0.77-2.339,1.161c-2.986,1.496-5.929,3.082-8.905,4.6c-0.735,0.375-1.473,0.744-2.213,1.112
			c-1.964,0.976-3.922,1.963-5.879,2.954c-2.779,1.338-5.629,2.52-8.398,3.879c-0.64,0.314-1.278,0.632-1.917,0.949
			c-0.228,0.113-0.456,0.225-0.685,0.337c-0.275,0.136-0.551,0.272-0.826,0.407c-0.311-0.116-0.623-0.232-0.934-0.348
			c-1.536-0.572-3.082-1.115-4.624-1.67c-1.51-0.543-3.015-1.094-4.542-1.585c-1.522-0.489-3.059-0.902-4.621-1.246
			c-1.537-0.339-3.062-0.715-4.591-1.086c-1.969-0.476-3.965-0.836-5.957-1.196c-1.629-0.295-3.257-0.592-4.889-0.861
			c-3.222-0.531-6.442-0.623-9.703-0.595c-2.133,0.019-4.265,0.056-6.396,0.117c-1.625,0.046-3.259,0.074-4.876,0.252
			c-1.673,0.184-3.327,0.543-4.972,0.895c-1.839,0.393-3.724,0.805-5.49,1.468c-1.009,0.377-1.97,0.867-2.92,1.373
			c-0.721,0.385-1.435,0.834-2.068,1.351c-1.424,1.166-2.562,2.532-3.498,4.106c-0.882,1.484-1.567,3.17-1.536,4.918
			c0.017,0.996,0.129,1.987,0.352,2.96c0.165,0.715,0.469,1.365,0.816,2.006c0.509,0.939,1.099,1.827,1.763,2.665
			c0.655,0.827,1.644,1.466,2.5,2.04c0.591,0.396,1.211,0.748,1.796,1.152c0.589,0.408,1.155,0.846,1.765,1.223
			c1.021,0.631,2.193,1.032,3.327,1.413c0.762,0.256,1.553,0.437,2.335,0.62c2.114,0.497,4.253,0.933,6.427,0.985
			c2.15,0.051,4.305,0.021,6.454-0.015c1.616-0.027,3.217-0.164,4.818-0.375c3.685-0.484,7.353-1.1,10.964-1.979
			c3.183-0.775,6.324-1.718,9.453-2.685c6.173-1.906,12.19-4.28,18.098-6.885c0.782-0.345,1.56-0.699,2.336-1.06
			c1.395,0.613,2.795,1.212,4.213,1.768c1.504,0.589,3.038,1.098,4.563,1.628c1.531,0.531,3.046,1.102,4.567,1.656
			c3.068,1.119,6.128,2.269,9.258,3.204c1.525,0.455,3.062,0.872,4.578,1.36c1.541,0.496,3.063,1.047,4.622,1.481
			c1.564,0.437,3.145,0.783,4.738,1.094c2.111,0.413,4.227,0.816,6.345,1.194c1.562,0.278,3.133,0.506,4.703,0.724
			c1.588,0.221,3.182,0.435,4.785,0.523c1.293,0.07,2.582,0.072,3.874,0.06c-0.098,0.001-0.197,0.002-0.295,0.003
			c2.23-0.022,4.461-0.043,6.692-0.079c0.888-0.084,1.708-0.366,2.456-0.847c0.612-0.391,0.973-0.942,1.082-1.654
			c0.016-0.72-0.243-1.325-0.778-1.816c-0.903-0.943-2.506-1.504-3.783-1.543c-1.719-0.055-3.453-0.062-5.169-0.185
			c-1.655-0.119-3.301-0.31-4.944-0.541c-3.059-0.431-6.124-0.866-9.163-1.422c-2.724-0.514-5.439-1.053-8.089-1.888
			c-1.49-0.47-2.96-0.996-4.457-1.439c-1.591-0.471-3.19-0.912-4.773-1.406c-3.125-0.975-6.193-2.145-9.276-3.248
			c-2.51-0.898-5.064-1.688-7.561-2.625c2.027-0.971,4.084-1.873,6.132-2.802c2.705-1.227,5.32-2.642,7.976-3.968
			c2.609-1.295,5.21-2.607,7.798-3.95c2.523-1.309,5.038-2.636,7.581-3.908c0.285-0.124,0.575-0.28,0.968-0.48
			c3.029-1.493,6.07-2.957,9.059-4.53c2.685-1.413,5.4-2.773,8.111-4.137c0.327,0.219,0.656,0.436,0.988,0.648
			c1.346,0.861,2.767,1.592,4.22,2.253c1.839,0.836,3.707,1.576,5.648,2.135c1.927,0.555,3.91,0.912,5.895,1.195
			c1.528,0.217,3.087,0.309,4.63,0.3c1.203-0.007,2.381-0.016,3.57-0.191c1.493-0.218,3.036-0.449,4.413-1.084
			c0.761-0.351,1.514-0.744,2.236-1.172c0.448-0.266,0.84-0.618,1.21-0.979c0.567-0.553,1.099-1.089,1.536-1.752
			c0.264-0.402,0.452-0.857,0.628-1.303c0.213-0.536,0.423-1.092,0.559-1.654c0.099-0.405,0.205-0.809,0.277-1.218
			C415.234,243.213,415.301,242.436,415.248,241.639z M252.001,164.272c-0.106,0.001-0.212,0.002-0.318,0.003
			c0.129-0.002,0.257-0.003,0.386-0.004C252.046,164.272,252.024,164.272,252.001,164.272z M332.495,196.608
			c0.989-2.545,2.251-4.937,3.667-7.273c0.72-1.188,1.51-2.331,2.319-3.46c0.802-1.121,1.612-2.222,2.543-3.236
			c0.65-0.604,1.325-1.185,2.047-1.699c0.758-0.54,1.551-1.012,2.37-1.449c0.603-0.278,1.214-0.53,1.85-0.719
			c0.016-0.003,0.031-0.005,0.046-0.007c0.044,0.047,0.088,0.095,0.131,0.145c0.393,0.685,0.677,1.426,0.862,2.195
			c0.277,2.16,0.138,4.404-0.493,6.484c-0.398,1.001-0.835,1.984-1.311,2.951c-0.562,1.141-1.097,2.325-1.805,3.384
			c-1.353,2.025-2.877,3.896-4.567,5.642c-1.163,1.079-2.437,2.045-3.728,2.962c-0.718,0.51-1.464,0.98-2.197,1.468
			c-0.482,0.32-0.972,0.623-1.477,0.904c-0.709,0.307-1.439,0.563-2.183,0.771c0.266-1.353,0.532-2.706,0.797-4.059
			C331.693,199.935,331.985,198.24,332.495,196.608z M300.484,275.595c-2.235,0.757-4.498,1.45-6.765,2.109
			c-2.158,0.627-4.322,1.236-6.509,1.758c-2.652,0.541-5.349,0.934-8.031,1.269c-2.555,0.318-5.128,0.377-7.7,0.421
			c-1.35-0.023-2.67-0.192-3.998-0.418c-0.69-0.144-1.375-0.308-2.046-0.524c-0.736-0.381-1.427-0.834-2.153-1.244
			c-0.676-0.381-1.366-0.724-2.022-1.132c-0.391-0.353-0.735-0.739-1.06-1.16c-0.241-0.357-0.471-0.721-0.67-1.101
			c-0.276-0.527-0.463-1.069-0.594-1.643c-0.062-0.444-0.103-0.892-0.096-1.337c0.009-0.558,0.101-1.088,0.252-1.615
			c0.573-1.354,1.347-2.665,2.326-3.763c0.833-0.73,1.747-1.34,2.718-1.871c1.563-0.692,3.246-1.137,4.914-1.523
			c1.069-0.229,2.138-0.455,3.219-0.629c1.172-0.19,2.379-0.238,3.565-0.284c2.305-0.09,4.609-0.158,6.915-0.193
			c1.646,0,3.287,0.024,4.928,0.163c1.428,0.12,2.842,0.348,4.25,0.604c2.826,0.544,5.64,1.125,8.39,1.985
			c1.408,0.442,2.829,0.842,4.242,1.268c1.237,0.373,2.439,0.834,3.633,1.321c1.861,0.779,3.713,1.583,5.573,2.37
			C309.415,272.337,304.98,274.073,300.484,275.595z M360.104,256.483c0.056-0.028,0.111-0.055,0.167-0.083c0,0,0,0,0,0
			c0.175-0.087,0.351-0.174,0.527-0.261C360.567,256.253,360.336,256.368,360.104,256.483z M406.831,245.051
			c-0.292,0.681-0.661,1.281-1.144,1.841c-0.483,0.409-1.004,0.736-1.556,1.046c-0.253,0.107-0.509,0.201-0.771,0.281
			c-0.858,0.152-1.725,0.266-2.595,0.315c-1.796-0.044-3.575-0.221-5.349-0.51c-1.734-0.375-3.43-0.876-5.091-1.502
			c-1.514-0.664-2.998-1.396-4.412-2.255c-0.233-0.141-0.463-0.285-0.693-0.431c2.324-1.141,4.655-2.268,7.022-3.313
			c2.574-1.136,5.165-2.185,7.888-2.88c0.706-0.126,1.41-0.22,2.122-0.268c0.505,0.026,1.005,0.072,1.506,0.138
			c0.25,0.065,0.496,0.135,0.741,0.216c0.22,0.111,0.434,0.229,0.644,0.358c0.547,0.471,1.055,0.995,1.508,1.557
			c0.181,0.295,0.34,0.599,0.469,0.928c0.046,0.116,0.081,0.236,0.11,0.358C407.381,242.319,407.237,243.714,406.831,245.051z"/>
	</g>
</g>
<g id="designed_by_freepik">
	<g>
		<g>
			<path style="fill:#303030;" d="M165.045,467.232c-0.161-0.195-0.389-0.286-0.699-0.286c-0.309,0-0.538,0.103-0.71,0.309
				c-0.161,0.218-0.241,0.527-0.241,0.94v2.979c-0.378-0.412-0.768-0.722-1.169-0.928c-0.401-0.195-0.882-0.298-1.467-0.298
				c-0.997,0-1.811,0.355-2.43,1.054c-0.607,0.711-0.917,1.684-0.917,2.946c0,0.595,0.081,1.146,0.23,1.661
				c0.16,0.516,0.378,0.964,0.687,1.341c0.298,0.378,0.654,0.665,1.066,0.872c0.401,0.206,0.848,0.309,1.329,0.309
				c0.367,0,0.711-0.057,1.008-0.16c0.309-0.092,0.596-0.241,0.86-0.435c0.264-0.195,0.527-0.448,0.802-0.757v0.195
				c0,0.367,0.091,0.654,0.264,0.859c0.183,0.195,0.412,0.298,0.687,0.298c0.275,0,0.505-0.103,0.688-0.286
				c0.172-0.195,0.264-0.481,0.264-0.871v-8.882C165.297,467.713,165.217,467.427,165.045,467.232z M163.017,475.449
				c-0.172,0.378-0.401,0.665-0.699,0.848c-0.286,0.184-0.619,0.275-0.963,0.275c-0.355,0-0.676-0.104-0.974-0.299
				c-0.298-0.195-0.527-0.481-0.699-0.859c-0.161-0.389-0.252-0.847-0.252-1.398c0-0.516,0.08-0.974,0.241-1.364
				c0.16-0.39,0.389-0.687,0.676-0.893c0.286-0.207,0.619-0.321,0.986-0.321c0.355,0,0.688,0.103,0.986,0.309
				c0.298,0.207,0.527,0.505,0.699,0.883c0.183,0.389,0.264,0.848,0.264,1.387C163.28,474.59,163.2,475.06,163.017,475.449z"/>
			<path style="fill:#303030;" d="M173.124,475.357c-0.195,0-0.344,0.046-0.447,0.138c-0.252,0.229-0.459,0.424-0.608,0.562
				c-0.161,0.138-0.332,0.263-0.516,0.389c-0.195,0.114-0.378,0.206-0.584,0.263c-0.195,0.058-0.412,0.081-0.653,0.081
				c-0.367,0-0.688-0.092-0.986-0.263c-0.298-0.172-0.538-0.436-0.722-0.791c-0.184-0.344-0.275-0.757-0.275-1.203h3.942
				c0.527,0,0.928-0.081,1.226-0.229c0.286-0.149,0.435-0.481,0.435-0.986c0-0.549-0.149-1.077-0.424-1.604
				c-0.275-0.527-0.699-0.962-1.272-1.295c-0.561-0.332-1.238-0.494-2.017-0.494c-0.608,0-1.158,0.092-1.65,0.286
				c-0.505,0.195-0.917,0.481-1.261,0.837c-0.332,0.367-0.596,0.803-0.768,1.317c-0.183,0.505-0.275,1.055-0.275,1.651
				c0,1.26,0.367,2.27,1.077,3.003c0.722,0.733,1.731,1.111,3.026,1.111c0.561,0,1.066-0.081,1.501-0.229
				c0.435-0.149,0.791-0.332,1.077-0.549c0.286-0.229,0.504-0.459,0.653-0.699c0.138-0.252,0.206-0.458,0.206-0.641
				c0-0.207-0.057-0.367-0.184-0.481C173.492,475.414,173.331,475.357,173.124,475.357z M168.919,471.839
				c0.321-0.344,0.734-0.515,1.238-0.515c0.527,0,0.951,0.171,1.272,0.515c0.321,0.345,0.504,0.859,0.562,1.548h-3.656
				C168.403,472.711,168.598,472.195,168.919,471.839z"/>
			<path style="fill:#303030;" d="M181.146,474.509c-0.206-0.286-0.504-0.538-0.905-0.744c-0.389-0.218-0.905-0.402-1.524-0.551
				c-0.527-0.125-0.939-0.24-1.237-0.321c-0.309-0.091-0.539-0.206-0.722-0.344c-0.172-0.125-0.264-0.309-0.264-0.516
				c0-0.228,0.115-0.423,0.355-0.584c0.253-0.149,0.55-0.229,0.917-0.229c0.355,0,0.63,0.058,0.837,0.183
				c0.206,0.115,0.389,0.275,0.538,0.47c0.183,0.23,0.355,0.413,0.493,0.527c0.149,0.115,0.321,0.184,0.527,0.184
				c0.286,0,0.515-0.081,0.665-0.23c0.161-0.149,0.229-0.332,0.229-0.562c0-0.217-0.068-0.435-0.218-0.653
				c-0.137-0.218-0.355-0.424-0.63-0.608c-0.275-0.184-0.619-0.321-1.043-0.435c-0.413-0.103-0.883-0.16-1.398-0.16
				c-0.665,0-1.238,0.103-1.708,0.32c-0.47,0.218-0.825,0.505-1.066,0.859c-0.241,0.356-0.355,0.745-0.355,1.146
				c0,0.448,0.126,0.837,0.389,1.146c0.264,0.31,0.607,0.562,1.043,0.745c0.435,0.184,0.997,0.367,1.696,0.538
				c0.607,0.149,1.054,0.31,1.318,0.47c0.275,0.16,0.401,0.424,0.401,0.768c0,0.241-0.126,0.435-0.378,0.619
				c-0.264,0.183-0.596,0.275-0.997,0.275c-0.493,0-0.894-0.092-1.18-0.264c-0.286-0.184-0.527-0.447-0.745-0.814
				c-0.092-0.184-0.206-0.332-0.321-0.435c-0.115-0.103-0.275-0.149-0.481-0.149c-0.241,0-0.447,0.081-0.596,0.229
				c-0.16,0.16-0.24,0.355-0.24,0.573c0,0.332,0.126,0.665,0.367,0.997c0.252,0.332,0.631,0.607,1.146,0.836
				c0.516,0.218,1.135,0.332,1.857,0.332c0.756,0,1.398-0.103,1.925-0.309c0.538-0.207,0.94-0.505,1.203-0.905
				c0.275-0.389,0.401-0.872,0.401-1.421C181.445,475.128,181.353,474.795,181.146,474.509z"/>
			<path style="fill:#303030;" d="M184.218,470.246c-0.195-0.206-0.435-0.309-0.734-0.309c-0.298,0-0.538,0.103-0.722,0.309
				c-0.184,0.195-0.275,0.492-0.275,0.894v5.764c0,0.391,0.092,0.688,0.275,0.905c0.184,0.207,0.424,0.321,0.722,0.321
				c0.298,0,0.539-0.103,0.734-0.309c0.195-0.207,0.286-0.516,0.286-0.918v-5.821C184.504,470.727,184.413,470.441,184.218,470.246z
				 M184.195,467.278c-0.195-0.16-0.424-0.252-0.688-0.252c-0.275,0-0.504,0.092-0.711,0.286c-0.206,0.182-0.309,0.412-0.309,0.698
				c0,0.321,0.104,0.562,0.298,0.734c0.207,0.171,0.447,0.252,0.722,0.252c0.275,0,0.504-0.081,0.699-0.252
				c0.195-0.184,0.298-0.424,0.298-0.734C184.504,467.691,184.401,467.449,184.195,467.278z"/>
			<path style="fill:#303030;" d="M193.134,470.314c-0.126-0.252-0.389-0.377-0.779-0.377c-0.264,0-0.493,0.103-0.665,0.287
				c-0.172,0.195-0.252,0.469-0.252,0.814v0.274c-0.355-0.469-0.745-0.814-1.169-1.031c-0.412-0.218-0.905-0.332-1.478-0.332
				c-0.481,0-0.917,0.092-1.318,0.263c-0.401,0.161-0.745,0.413-1.054,0.757c-0.298,0.332-0.539,0.745-0.699,1.227
				c-0.172,0.492-0.252,1.031-0.252,1.638c0,0.814,0.138,1.524,0.412,2.143c0.264,0.619,0.654,1.1,1.158,1.444
				c0.504,0.356,1.088,0.527,1.765,0.527c0.561,0,1.043-0.114,1.455-0.344c0.401-0.229,0.757-0.562,1.065-0.986
				c-0.011,0.654-0.022,1.135-0.046,1.432c-0.011,0.299-0.08,0.573-0.195,0.837c-0.114,0.264-0.321,0.459-0.607,0.608
				c-0.286,0.149-0.688,0.217-1.215,0.217c-0.252,0-0.481-0.022-0.676-0.068c-0.195-0.046-0.367-0.115-0.504-0.218
				c-0.138-0.092-0.275-0.206-0.39-0.344c-0.114-0.138-0.229-0.275-0.332-0.401c-0.218-0.264-0.481-0.389-0.779-0.389
				c-0.229,0-0.435,0.079-0.596,0.228c-0.172,0.161-0.253,0.356-0.253,0.608c0,0.321,0.149,0.63,0.435,0.94
				c0.298,0.309,0.722,0.561,1.261,0.756c0.55,0.195,1.169,0.286,1.868,0.286c0.756,0,1.387-0.069,1.891-0.229
				c0.515-0.149,0.928-0.378,1.237-0.699c0.321-0.309,0.551-0.711,0.688-1.192c0.138-0.481,0.218-1.054,0.218-1.73v-5.844
				C193.328,470.933,193.26,470.567,193.134,470.314z M191.082,475.368c-0.183,0.356-0.424,0.631-0.722,0.802
				c-0.298,0.184-0.619,0.275-0.951,0.275c-0.561,0-1.031-0.206-1.387-0.63c-0.355-0.413-0.527-1.032-0.527-1.845
				s0.172-1.433,0.516-1.868c0.344-0.435,0.802-0.665,1.387-0.665c0.584,0,1.065,0.229,1.421,0.687c0.367,0.459,0.55,1.1,0.55,1.926
				C191.369,474.567,191.266,475.003,191.082,475.368z"/>
			<path style="fill:#303030;" d="M201.752,472.057c-0.034-0.275-0.126-0.551-0.252-0.791c-0.206-0.423-0.516-0.744-0.94-0.985
				c-0.413-0.229-0.894-0.344-1.421-0.344c-0.55,0-1.031,0.114-1.455,0.332c-0.115,0.057-0.218,0.125-0.332,0.206
				c-0.286,0.206-0.562,0.481-0.825,0.825v-0.252c0-0.241-0.046-0.448-0.126-0.608c-0.092-0.171-0.206-0.298-0.344-0.378
				c-0.149-0.079-0.309-0.125-0.482-0.125c-0.286,0-0.515,0.091-0.687,0.287c-0.172,0.182-0.252,0.469-0.252,0.859v5.821
				c0,0.391,0.092,0.688,0.286,0.905c0.184,0.207,0.424,0.321,0.711,0.321c0.298,0,0.55-0.103,0.733-0.309
				c0.195-0.207,0.287-0.516,0.287-0.918v-2.52c0-0.826,0.046-1.387,0.149-1.686c0.138-0.378,0.355-0.665,0.642-0.882
				c0.298-0.218,0.63-0.321,0.985-0.321c0.55,0,0.917,0.172,1.1,0.527c0.184,0.356,0.275,0.86,0.275,1.524v3.357
				c0,0.391,0.103,0.688,0.287,0.905c0.183,0.207,0.423,0.321,0.733,0.321c0.287,0,0.527-0.103,0.711-0.309
				c0.195-0.207,0.286-0.516,0.286-0.918v-3.747C201.821,472.711,201.798,472.343,201.752,472.057z"/>
			<path style="fill:#303030;" d="M209.625,475.357c-0.195,0-0.332,0.046-0.435,0.138c-0.253,0.229-0.458,0.424-0.619,0.562
				c-0.161,0.138-0.332,0.263-0.516,0.389c-0.183,0.114-0.378,0.206-0.573,0.263c-0.195,0.058-0.401,0.081-0.63,0.081h-0.012
				c-0.011,0-0.011,0-0.023,0c-0.355,0-0.687-0.092-0.985-0.263c-0.298-0.172-0.538-0.436-0.711-0.791
				c-0.034-0.068-0.068-0.126-0.092-0.195v-0.011c-0.126-0.299-0.183-0.642-0.195-0.997h3.943c0.527,0,0.939-0.081,1.226-0.229
				s0.435-0.481,0.435-0.986c0-0.549-0.138-1.077-0.424-1.604c-0.275-0.527-0.699-0.962-1.261-1.295
				c-0.561-0.332-1.237-0.494-2.028-0.494c-0.608,0-1.158,0.092-1.651,0.286c-0.492,0.195-0.917,0.481-1.249,0.837
				c-0.344,0.367-0.607,0.803-0.779,1.317c-0.172,0.505-0.264,1.055-0.264,1.651c0,1.26,0.355,2.27,1.078,3.003
				c0.71,0.733,1.719,1.111,3.014,1.111c0.561,0,1.066-0.081,1.501-0.229c0.011,0,0.034-0.011,0.046-0.011
				c0.413-0.149,0.756-0.332,1.043-0.538c0.286-0.229,0.493-0.459,0.642-0.699c0.138-0.252,0.218-0.458,0.218-0.641
				c0-0.207-0.069-0.367-0.195-0.481C210.003,475.414,209.831,475.357,209.625,475.357z M205.43,471.839
				c0.321-0.344,0.734-0.515,1.227-0.515c0.527,0,0.951,0.171,1.272,0.515c0.332,0.345,0.516,0.859,0.562,1.548h-3.656
				C204.903,472.711,205.098,472.195,205.43,471.839z"/>
			<path style="fill:#303030;" d="M218.644,467.232c-0.161-0.195-0.401-0.286-0.699-0.286c-0.31,0-0.551,0.103-0.711,0.309
				c-0.161,0.218-0.252,0.527-0.252,0.94v2.979c-0.378-0.412-0.756-0.722-1.157-0.928c-0.401-0.195-0.894-0.298-1.467-0.298
				c-1.008,0-1.811,0.355-2.429,1.054c-0.619,0.711-0.928,1.684-0.928,2.946c0,0.595,0.08,1.146,0.241,1.661
				c0.149,0.516,0.378,0.964,0.676,1.341c0.298,0.378,0.653,0.665,1.066,0.872c0.412,0.206,0.859,0.309,1.341,0.309
				c0.367,0,0.699-0.057,1.008-0.16c0.309-0.092,0.596-0.241,0.859-0.435s0.527-0.448,0.791-0.757v0.195
				c0,0.367,0.092,0.654,0.275,0.859c0.183,0.195,0.401,0.298,0.688,0.298c0.275,0,0.504-0.103,0.676-0.286
				c0.184-0.195,0.275-0.481,0.275-0.871v-8.882C218.896,467.713,218.805,467.427,218.644,467.232z M216.616,475.449
				c-0.172,0.378-0.413,0.665-0.699,0.848c-0.298,0.184-0.618,0.275-0.974,0.275c-0.344,0-0.665-0.104-0.963-0.299
				c-0.298-0.195-0.527-0.481-0.699-0.859c-0.172-0.389-0.252-0.847-0.252-1.398c0-0.516,0.08-0.974,0.241-1.364
				c0.16-0.39,0.378-0.687,0.676-0.893c0.286-0.207,0.619-0.321,0.985-0.321c0.355,0,0.677,0.103,0.974,0.309
				c0.298,0.207,0.539,0.505,0.711,0.883c0.172,0.389,0.264,0.848,0.264,1.387C216.879,474.59,216.787,475.06,216.616,475.449z"/>
			<path style="fill:#303030;" d="M230.769,471.805c-0.275-0.596-0.665-1.054-1.169-1.375c-0.505-0.321-1.089-0.481-1.765-0.481
				c-0.573,0-1.066,0.114-1.455,0.321c-0.401,0.206-0.779,0.504-1.158,0.904v-3.082c0-0.367-0.092-0.654-0.252-0.848
				c-0.172-0.206-0.413-0.298-0.722-0.298c-0.286,0-0.516,0.103-0.688,0.309c-0.161,0.207-0.241,0.516-0.241,0.929v8.79
				c0,0.378,0.08,0.665,0.252,0.859c0.172,0.195,0.39,0.298,0.676,0.298c0.287,0,0.515-0.103,0.699-0.298
				c0.183-0.195,0.275-0.481,0.275-0.859v-0.195c0.218,0.252,0.401,0.447,0.527,0.573c0.138,0.125,0.298,0.252,0.493,0.378
				c0.195,0.114,0.424,0.217,0.699,0.286c0.275,0.068,0.562,0.114,0.871,0.114c0.504,0,0.974-0.103,1.398-0.309
				c0.413-0.207,0.78-0.493,1.066-0.872c0.298-0.366,0.527-0.814,0.676-1.317c0.161-0.516,0.229-1.065,0.229-1.684
				C231.181,473.122,231.044,472.412,230.769,471.805z M228.614,475.908c-0.367,0.447-0.802,0.665-1.306,0.665
				c-0.596,0-1.078-0.218-1.444-0.654c-0.367-0.424-0.55-1.043-0.55-1.845c0-0.538,0.092-1.02,0.264-1.409
				c0.172-0.402,0.401-0.699,0.699-0.905c0.309-0.207,0.642-0.321,1.032-0.321c0.367,0,0.699,0.114,0.974,0.321
				c0.286,0.206,0.505,0.504,0.654,0.882c0.149,0.39,0.229,0.848,0.229,1.376C229.164,474.841,228.981,475.471,228.614,475.908z"/>
			<path style="fill:#303030;" d="M238.55,470.384c-0.08-0.138-0.183-0.241-0.321-0.321c-0.138-0.079-0.286-0.125-0.435-0.125
				c-0.218,0-0.378,0.034-0.493,0.114c-0.115,0.068-0.229,0.218-0.332,0.424c-0.103,0.217-0.218,0.504-0.344,0.882l-1.616,4.608
				l-1.707-4.962c-0.115-0.344-0.241-0.608-0.39-0.791c-0.149-0.184-0.367-0.274-0.653-0.274c-0.172,0-0.332,0.046-0.481,0.137
				c-0.16,0.081-0.286,0.207-0.367,0.356c-0.092,0.138-0.138,0.298-0.138,0.47c0,0.171,0.08,0.424,0.229,0.79l2.475,6.235
				l-0.183,0.458c-0.137,0.321-0.252,0.573-0.367,0.745c-0.103,0.172-0.218,0.287-0.355,0.355c-0.126,0.069-0.309,0.104-0.539,0.104
				c-0.103,0-0.206-0.012-0.332-0.046c-0.103-0.023-0.218-0.046-0.321-0.046c-0.275,0-0.481,0.068-0.619,0.195
				c-0.149,0.125-0.218,0.298-0.218,0.527c0,0.344,0.149,0.573,0.447,0.711c0.298,0.125,0.734,0.183,1.329,0.183
				c0.597,0,1.078-0.092,1.433-0.275c0.367-0.184,0.654-0.448,0.859-0.791c0.218-0.344,0.447-0.814,0.665-1.421l2.636-6.876
				c0.057-0.182,0.115-0.355,0.161-0.527c0.045-0.171,0.068-0.309,0.091-0.401C238.665,470.67,238.63,470.521,238.55,470.384z"/>
		</g>
		<g>
			<path style="fill:#303030;" d="M262.972,470.112h0.48v-0.604c0-0.632,0.077-1.132,0.237-1.504
				c0.159-0.372,0.432-0.642,0.814-0.811c0.38-0.169,0.903-0.254,1.567-0.254c1.18,0,1.765,0.285,1.765,0.865
				c0,0.186-0.062,0.346-0.187,0.478c-0.12,0.132-0.266,0.199-0.433,0.199c-0.077,0-0.216-0.014-0.41-0.046
				c-0.185-0.026-0.352-0.044-0.483-0.044c-0.364,0-0.595,0.11-0.704,0.322c-0.098,0.214-0.151,0.519-0.151,0.92v0.479h0.491
				c0.77,0,1.151,0.231,1.151,0.696c0,0.326-0.098,0.536-0.306,0.624c-0.202,0.09-0.484,0.133-0.845,0.133h-0.491v5.336
				c0,0.397-0.094,0.699-0.286,0.908c-0.188,0.212-0.431,0.316-0.732,0.316c-0.285,0-0.522-0.104-0.713-0.316
				c-0.19-0.208-0.283-0.51-0.283-0.908v-5.336h-0.555c-0.301,0-0.529-0.065-0.694-0.204c-0.162-0.132-0.244-0.31-0.244-0.526
				C261.959,470.351,262.297,470.112,262.972,470.112L262.972,470.112z"/>
			<path style="fill:#303030;" d="M269.565,475.218v1.683c0,0.407-0.103,0.714-0.29,0.917c-0.192,0.206-0.434,0.307-0.729,0.307
				c-0.296,0-0.534-0.102-0.719-0.311c-0.184-0.205-0.28-0.509-0.28-0.912v-5.609c0-0.905,0.326-1.359,0.979-1.359
				c0.337,0,0.576,0.105,0.725,0.317c0.147,0.213,0.228,0.524,0.246,0.939c0.238-0.415,0.484-0.726,0.736-0.939
				c0.257-0.212,0.592-0.317,1.017-0.317c0.426,0,0.833,0.105,1.231,0.317c0.4,0.213,0.599,0.495,0.599,0.843
				c0,0.245-0.086,0.451-0.253,0.608c-0.171,0.162-0.353,0.242-0.548,0.242c-0.077,0-0.257-0.049-0.538-0.14
				c-0.283-0.089-0.535-0.134-0.748-0.134c-0.296,0-0.538,0.079-0.724,0.232c-0.188,0.159-0.333,0.386-0.438,0.688
				c-0.101,0.307-0.17,0.673-0.212,1.091C269.583,474.1,269.565,474.614,269.565,475.218L269.565,475.218z"/>
			<path style="fill:#303030;" d="M279.669,475.357c-0.184,0-0.333,0.046-0.435,0.138c-0.252,0.229-0.458,0.424-0.619,0.549
				c-0.16,0.15-0.32,0.275-0.515,0.391c-0.184,0.125-0.378,0.217-0.573,0.263c-0.207,0.069-0.424,0.092-0.665,0.092
				c-0.356,0-0.688-0.092-0.986-0.263c-0.298-0.184-0.538-0.448-0.722-0.791c-0.172-0.344-0.264-0.757-0.275-1.214h3.943
				c0.527,0,0.939-0.069,1.226-0.218c0.286-0.16,0.435-0.481,0.435-0.986c0-0.549-0.138-1.077-0.424-1.615
				c-0.274-0.528-0.698-0.951-1.26-1.284c-0.562-0.332-1.238-0.494-2.028-0.494c-0.608,0-1.158,0.092-1.651,0.286
				s-0.917,0.47-1.249,0.837c-0.344,0.367-0.608,0.803-0.779,1.306c-0.184,0.516-0.264,1.067-0.264,1.662
				c0,1.26,0.355,2.27,1.078,3.003c0.71,0.733,1.719,1.1,3.014,1.1c0.561,0,1.065-0.069,1.501-0.218
				c0.435-0.149,0.802-0.332,1.089-0.549c0.286-0.229,0.505-0.459,0.654-0.711c0.138-0.241,0.206-0.447,0.206-0.63
				c0-0.207-0.068-0.367-0.195-0.481C280.047,475.414,279.876,475.357,279.669,475.357z M275.474,471.839
				c0.321-0.344,0.734-0.515,1.227-0.515c0.539,0,0.951,0.171,1.284,0.515c0.321,0.333,0.505,0.848,0.551,1.537h-3.656
				C274.948,472.698,275.143,472.195,275.474,471.839z"/>
			<path style="fill:#303030;" d="M288.047,475.357c-0.184,0-0.332,0.046-0.435,0.138c-0.253,0.229-0.459,0.424-0.619,0.549
				c-0.161,0.15-0.321,0.275-0.516,0.391c-0.184,0.125-0.378,0.217-0.584,0.263c-0.195,0.069-0.413,0.092-0.654,0.092
				c-0.355,0-0.687-0.092-0.986-0.263c-0.298-0.184-0.538-0.448-0.71-0.791c-0.184-0.344-0.275-0.757-0.286-1.214h3.942
				c0.527,0,0.94-0.069,1.227-0.218c0.286-0.16,0.435-0.481,0.435-0.986c0-0.549-0.138-1.077-0.424-1.615
				c-0.275-0.528-0.699-0.951-1.26-1.284c-0.573-0.332-1.238-0.494-2.029-0.494c-0.608,0-1.157,0.092-1.651,0.286
				c-0.504,0.195-0.917,0.47-1.249,0.837c-0.344,0.367-0.607,0.803-0.779,1.306c-0.184,0.516-0.275,1.067-0.275,1.662
				c0,1.26,0.367,2.27,1.089,3.003c0.711,0.733,1.719,1.1,3.014,1.1c0.562,0,1.065-0.069,1.502-0.218
				c0.435-0.149,0.801-0.332,1.088-0.549c0.286-0.229,0.505-0.459,0.642-0.711c0.149-0.241,0.206-0.447,0.206-0.63
				c0-0.207-0.057-0.367-0.183-0.481C288.425,475.414,288.253,475.357,288.047,475.357z M283.841,471.839
				c0.332-0.344,0.744-0.515,1.238-0.515c0.527,0,0.951,0.171,1.283,0.515c0.321,0.333,0.505,0.848,0.551,1.537h-3.655
				C283.325,472.698,283.52,472.195,283.841,471.839z"/>
			<path style="fill:#303030;" d="M297.569,473.776c-0.022-0.745-0.171-1.387-0.435-1.948c-0.309-0.608-0.722-1.077-1.238-1.398
				c-0.527-0.321-1.1-0.481-1.719-0.481c-0.516,0-0.974,0.114-1.375,0.332c-0.412,0.217-0.814,0.562-1.192,1.031v-0.241
				c0-0.378-0.079-0.652-0.263-0.847c-0.184-0.196-0.413-0.287-0.699-0.287s-0.515,0.091-0.687,0.274
				c-0.172,0.195-0.252,0.481-0.252,0.872v8.686c0,0.448,0.068,0.769,0.182,1.01c0.126,0.217,0.378,0.332,0.757,0.332
				c0.642,0,0.962-0.448,0.962-1.329v-3.014c0.207,0.252,0.413,0.469,0.631,0.652c0.16,0.138,0.32,0.253,0.493,0.356
				c0.389,0.229,0.871,0.344,1.444,0.344c0.481,0,0.929-0.092,1.341-0.275c0.424-0.195,0.78-0.47,1.089-0.814
				c0.298-0.355,0.538-0.79,0.722-1.306c0.172-0.516,0.253-1.089,0.253-1.708C297.582,473.936,297.582,473.857,297.569,473.776z
				 M295.301,475.403c-0.172,0.389-0.389,0.676-0.688,0.871c-0.274,0.195-0.595,0.299-0.928,0.299c-0.069,0-0.138,0-0.195-0.023
				c-0.481-0.035-0.883-0.263-1.215-0.654c-0.378-0.435-0.561-1.065-0.561-1.868c0-0.848,0.182-1.49,0.573-1.936
				c0.377-0.435,0.847-0.654,1.398-0.654c0.355,0,0.676,0.103,0.963,0.309c0.286,0.207,0.505,0.494,0.665,0.883
				c0.172,0.378,0.252,0.836,0.252,1.364c0,0.492-0.068,0.917-0.217,1.271C295.335,475.311,295.323,475.357,295.301,475.403z"/>
			<path style="fill:#303030;" d="M300.32,470.235c-0.195-0.207-0.435-0.298-0.733-0.298c-0.286,0-0.528,0.091-0.711,0.298
				c-0.184,0.206-0.286,0.504-0.286,0.905v5.764c0,0.391,0.103,0.688,0.286,0.905c0.182,0.207,0.424,0.31,0.711,0.31
				c0.298,0,0.538-0.092,0.733-0.31c0.195-0.206,0.287-0.504,0.287-0.905v-5.821C300.607,470.716,300.515,470.441,300.32,470.235z
				 M300.309,467.278c-0.207-0.172-0.435-0.252-0.699-0.252s-0.505,0.092-0.711,0.274c-0.206,0.184-0.309,0.424-0.309,0.711
				c0,0.31,0.103,0.551,0.309,0.722c0.195,0.172,0.435,0.264,0.711,0.264c0.275,0,0.504-0.092,0.711-0.264
				c0.195-0.171,0.287-0.412,0.287-0.722C300.607,467.691,300.504,467.438,300.309,467.278z"/>
			<path style="fill:#303030;" d="M307.102,477.205l-1.774-2.924l-1.093,1.032v1.604c0,0.388-0.103,0.685-0.308,0.893
				c-0.2,0.212-0.44,0.316-0.704,0.316c-0.31,0-0.555-0.102-0.731-0.311c-0.176-0.205-0.266-0.509-0.266-0.912v-8.593
				c0-0.444,0.088-0.785,0.256-1.02c0.174-0.237,0.423-0.351,0.741-0.351c0.31,0,0.554,0.106,0.737,0.32
				c0.181,0.209,0.274,0.523,0.274,0.933v4.887l2.265-2.378c0.281-0.292,0.491-0.498,0.642-0.604
				c0.146-0.108,0.324-0.162,0.535-0.162c0.253,0,0.461,0.081,0.633,0.24c0.163,0.16,0.248,0.363,0.248,0.601
				c0,0.294-0.274,0.691-0.819,1.182l-1.069,0.98l2.065,3.249c0.15,0.244,0.263,0.422,0.329,0.548
				c0.066,0.123,0.101,0.248,0.101,0.358c0,0.321-0.088,0.571-0.264,0.758c-0.175,0.185-0.406,0.275-0.688,0.275
				c-0.245,0-0.438-0.063-0.57-0.199C307.512,477.791,307.328,477.551,307.102,477.205L307.102,477.205z"/>
			<path style="fill:#303030;" d="M311.479,478.125c-0.303,0-0.564-0.099-0.787-0.295c-0.22-0.194-0.334-0.471-0.334-0.827
				c0-0.3,0.107-0.558,0.319-0.773c0.214-0.217,0.472-0.325,0.783-0.325c0.308,0,0.571,0.107,0.793,0.32
				c0.217,0.214,0.328,0.474,0.328,0.778c0,0.351-0.111,0.627-0.328,0.823C312.032,478.026,311.774,478.125,311.479,478.125
				L311.479,478.125z"/>
			<path style="fill:#303030;" d="M321.498,475.631c0,0.25-0.075,0.519-0.226,0.804c-0.149,0.288-0.379,0.557-0.688,0.816
				c-0.307,0.257-0.693,0.468-1.16,0.623c-0.467,0.157-0.995,0.238-1.577,0.238c-1.248,0-2.22-0.365-2.919-1.088
				c-0.696-0.728-1.045-1.701-1.045-2.921c0-0.828,0.158-1.558,0.48-2.194c0.317-0.632,0.78-1.123,1.384-1.47
				c0.604-0.348,1.332-0.52,2.17-0.52c0.523,0,1,0.076,1.438,0.229c0.435,0.151,0.802,0.35,1.107,0.59
				c0.3,0.244,0.533,0.499,0.692,0.77c0.16,0.273,0.238,0.529,0.238,0.767c0,0.24-0.088,0.444-0.266,0.612
				c-0.182,0.167-0.401,0.252-0.651,0.252c-0.17,0-0.309-0.045-0.421-0.13c-0.111-0.087-0.236-0.225-0.372-0.421
				c-0.246-0.372-0.501-0.654-0.773-0.838c-0.266-0.188-0.605-0.281-1.02-0.281c-0.592,0-1.076,0.232-1.44,0.697
				c-0.363,0.462-0.546,1.102-0.546,1.906c0,0.38,0.049,0.73,0.142,1.046c0.091,0.317,0.226,0.588,0.404,0.811
				c0.179,0.223,0.392,0.392,0.642,0.508c0.252,0.119,0.528,0.175,0.826,0.175c0.405,0,0.751-0.093,1.037-0.28
				c0.292-0.187,0.546-0.471,0.767-0.856c0.123-0.226,0.254-0.402,0.395-0.53c0.142-0.128,0.318-0.194,0.525-0.194
				c0.246,0,0.45,0.095,0.611,0.281C321.415,475.221,321.498,475.422,321.498,475.631L321.498,475.631z"/>
			<path style="fill:#303030;" d="M329.909,472.366c-0.182-0.493-0.446-0.928-0.801-1.295c-0.356-0.366-0.78-0.641-1.272-0.836
				c-0.505-0.207-1.054-0.298-1.662-0.298c-0.607,0-1.157,0.091-1.65,0.287c-0.494,0.195-0.918,0.469-1.273,0.836
				c-0.344,0.356-0.619,0.791-0.802,1.295c-0.184,0.505-0.275,1.067-0.275,1.673c0,0.608,0.092,1.157,0.264,1.662
				c0.195,0.492,0.459,0.928,0.825,1.295c0.344,0.367,0.78,0.654,1.261,0.848s1.031,0.298,1.65,0.298
				c0.608,0,1.157-0.103,1.662-0.298c0.481-0.195,0.905-0.47,1.261-0.837c0.355-0.366,0.63-0.801,0.813-1.306
				c0.184-0.505,0.275-1.065,0.275-1.662C330.185,473.421,330.093,472.871,329.909,472.366z M327.63,475.93
				c-0.367,0.47-0.848,0.699-1.456,0.699c-0.412,0-0.757-0.103-1.054-0.31c-0.298-0.217-0.527-0.516-0.687-0.917
				c-0.161-0.39-0.24-0.848-0.24-1.375s0.079-0.997,0.24-1.398c0.16-0.39,0.39-0.7,0.698-0.905c0.299-0.195,0.642-0.298,1.043-0.298
				c0.608,0,1.089,0.229,1.456,0.687c0.355,0.459,0.538,1.1,0.538,1.914C328.168,474.841,327.985,475.471,327.63,475.93z"/>
			<path style="fill:#303030;" d="M337.872,474.179v2.677c0,0.425-0.094,0.739-0.288,0.953c-0.194,0.212-0.443,0.317-0.759,0.317
				c-0.306,0-0.555-0.105-0.739-0.317c-0.192-0.215-0.289-0.528-0.289-0.953v-3.209c0-0.507-0.017-0.902-0.049-1.184
				c-0.036-0.274-0.131-0.508-0.282-0.685c-0.152-0.184-0.395-0.273-0.723-0.273c-0.66,0-1.092,0.225-1.302,0.684
				c-0.208,0.448-0.316,1.098-0.316,1.947v2.72c0,0.417-0.095,0.735-0.281,0.95c-0.194,0.213-0.441,0.32-0.75,0.32
				c-0.307,0-0.556-0.107-0.751-0.32c-0.195-0.215-0.292-0.533-0.292-0.95v-5.763c0-0.379,0.087-0.668,0.261-0.863
				c0.178-0.199,0.408-0.297,0.69-0.297c0.278,0,0.506,0.096,0.693,0.276c0.184,0.185,0.275,0.44,0.275,0.764v0.19
				c0.353-0.415,0.726-0.723,1.121-0.917c0.402-0.202,0.84-0.3,1.331-0.3c0.506,0,0.94,0.102,1.303,0.302
				c0.365,0.202,0.664,0.509,0.902,0.914c0.341-0.411,0.706-0.716,1.094-0.917c0.388-0.2,0.818-0.3,1.292-0.3
				c0.548,0,1.026,0.111,1.424,0.326c0.396,0.216,0.694,0.527,0.892,0.928c0.171,0.367,0.256,0.94,0.256,1.722v3.932
				c0,0.425-0.095,0.739-0.285,0.953c-0.191,0.212-0.447,0.317-0.761,0.317c-0.307,0-0.554-0.107-0.749-0.32
				c-0.195-0.215-0.292-0.533-0.292-0.95v-3.388c0-0.433-0.019-0.779-0.054-1.039c-0.037-0.262-0.138-0.482-0.298-0.658
				c-0.165-0.177-0.412-0.266-0.74-0.266c-0.266,0-0.518,0.083-0.757,0.238c-0.238,0.155-0.425,0.371-0.56,0.631
				C337.948,472.715,337.872,473.317,337.872,474.179L337.872,474.179z"/>
		</g>
		<g>
			<path style="fill:#303030;" d="M244.123,473.543c-0.002-0.003-0.002-0.007-0.002-0.013
				C244.122,473.536,244.122,473.54,244.123,473.543z"/>
			<path style="fill:#303030;" d="M244.225,474.188c0.001,0,0.001,0,0.002,0c-0.039-0.184-0.069-0.366-0.092-0.545
				C244.158,473.824,244.189,474.006,244.225,474.188z"/>
			<path style="fill:#303030;" d="M244.892,476.057c-0.005-0.008-0.008-0.017-0.014-0.026
				C244.883,476.04,244.887,476.049,244.892,476.057z"/>
			<path style="fill:#303030;" d="M244.828,475.932c-0.017-0.035-0.034-0.07-0.051-0.104
				C244.794,475.864,244.81,475.898,244.828,475.932z"/>
			<path style="fill:#303030;" d="M244.412,474.907c0.098,0.311,0.218,0.612,0.355,0.9c-0.14-0.293-0.257-0.595-0.353-0.9
				C244.415,474.907,244.413,474.907,244.412,474.907z"/>
			<path style="fill:#303030;" d="M251.919,465.827c0.389,0,0.676,0.03,1.006,0.086l0.093-0.592c0,0-0.91-0.28-2.105-0.182
				l-0.094-0.322c0.372-0.078,0.65-0.409,0.65-0.804c0-0.452-0.368-0.818-0.82-0.818c-0.453,0-0.82,0.366-0.82,0.818
				c0,0.395,0.279,0.725,0.65,0.804l0.104,0.359c-1.269,0.175-2.28,0.67-2.28,0.67l0.179,0.547c0.768-0.256,1.434-0.411,2.038-0.477
				C251.111,465.853,251.557,465.827,251.919,465.827z"/>
			<path style="fill:#303030;" d="M244.876,468.823l0.005-0.006c0.03-0.039,0.059-0.075,0.088-0.111l-0.243-0.176l-0.379-0.276
				c-0.021,0.029-0.618,0.578-1.088,1.59c-0.02-0.031-0.044-0.063-0.07-0.093c-0.141-0.153-0.338-0.232-0.589-0.227
				c-0.003,0-0.007,0-0.012,0c-0.155,0-0.261-0.053-0.331-0.115c0.069-0.087,0.111-0.198,0.111-0.321
				c0-0.285-0.233-0.519-0.52-0.519c-0.286,0-0.519,0.234-0.519,0.519c0,0.288,0.233,0.52,0.519,0.52
				c0.045,0,0.089-0.008,0.13-0.016c0.128,0.141,0.33,0.265,0.627,0.259c0.153-0.001,0.265,0.038,0.34,0.121
				c0.086,0.094,0.115,0.229,0.124,0.332c-0.001,0.001-0.001,0.003-0.002,0.003c-0.339,0.924-0.242,2.074-0.242,2.074l0.821,0.032
				c0.017-0.419,0.077-1.151,0.289-1.732C244.344,469.557,244.856,468.853,244.876,468.823z"/>
			<path style="fill:#303030;" d="M259.064,466.513c-0.285,0-0.519,0.232-0.519,0.519c0,0.045,0.007,0.087,0.018,0.129
				c-0.142,0.129-0.266,0.332-0.262,0.629c0.002,0.153-0.037,0.264-0.12,0.339c-0.066,0.058-0.149,0.09-0.229,0.11
				c-0.611-0.856-1.364-1.379-1.364-1.379l-0.589,0.631c0.445,0.405,0.9,0.913,1.342,1.545c0.306,0.438,0.621,1.003,0.883,1.566
				l0.795-0.378c0,0-0.363-0.898-0.874-1.702c0.088-0.031,0.178-0.079,0.257-0.149c0.156-0.141,0.232-0.339,0.227-0.589
				c-0.001-0.162,0.051-0.271,0.115-0.344c0.088,0.068,0.199,0.112,0.32,0.112c0.289,0,0.52-0.234,0.52-0.52
				C259.584,466.744,259.353,466.513,259.064,466.513z"/>
			<path style="fill:#303030;" d="M257,473.659c-1.095,0.534-2.896,1.238-5.267,1.569c-0.931,0.129-1.833,0.177-2.663,0.177
				c-1.08,0-2.034-0.081-2.767-0.173c-0.836-0.105-1.49-0.234-1.889-0.324c0.096,0.304,0.213,0.607,0.353,0.9
				c0.003,0.008,0.006,0.016,0.009,0.021c0.017,0.034,0.034,0.069,0.051,0.104c0.017,0.034,0.034,0.067,0.05,0.098
				c0.005,0.009,0.009,0.018,0.014,0.026c0.235,0.443,0.518,0.851,0.839,1.203c1.118,1.223,2.258,1.417,2.268,1.418l0.018,0.002
				l0.017,0.006c0.01,0.004,1.02,0.33,2.556,0.33c1.512,0,2.994-0.304,4.407-0.906c1.046-0.535,2.037-1.349,2.527-2.074
				c0.379-0.561,0.654-1.159,0.816-1.782c0.086-0.33,0.155-0.859,0.114-1.417C258.146,473.044,257.659,473.338,257,473.659z"/>
			<path style="fill:#303030;" d="M256.978,469.284c-1.547-2.224-3.231-2.797-4.09-2.934c-0.332-0.057-0.596-0.079-0.964-0.079
				c-0.355,0-0.779,0.022-1.363,0.079c-0.573,0.058-1.215,0.218-1.96,0.47c-1.055,0.344-1.994,0.894-2.739,1.581l-0.023,0.023
				c-0.115,0.103-0.344,0.321-0.608,0.654c-0.034,0.046-0.515,0.722-0.883,1.753c-0.286,0.78-0.275,1.903-0.275,1.914
				c0,0.264,0.023,0.527,0.046,0.791c0,0,0,0,0,0.011c0.011,0.035,0.011,0.057,0.011,0.092c0.023,0.184,0.058,0.367,0.092,0.551
				c0.55,0.136,3.793,0.893,7.414,0.389c2.281-0.321,4-0.986,5.054-1.502c0.871-0.412,1.433-0.801,1.651-0.962
				C258.124,471.324,257.529,470.063,256.978,469.284z M248.36,472.882c-1.215,0-2.188-0.974-2.188-2.189
				c0-1.203,0.974-2.177,2.188-2.177c1.204,0,2.189,0.974,2.189,2.177C250.549,471.908,249.563,472.882,248.36,472.882z
				 M254.755,471.278c-0.745,0-1.353-0.608-1.353-1.364c0-0.745,0.608-1.352,1.353-1.352c0.744,0,1.352,0.607,1.352,1.352
				C256.107,470.67,255.499,471.278,254.755,471.278z"/>
		</g>
	</g>
</g>
</svg>
